<svg width="24" height="24" viewBox="0 0 24 24" fill="none" xmlns="http://www.w3.org/2000/svg">
  <path d="M9 12C10.6569 12 12 10.6569 12 9C12 7.34315 10.6569 6 9 6C7.34315 6 6 7.34315 6 9C6 10.6569 7.34315 12 9 12Z" fill="currentColor"/>
  <path d="M15 13C16.1046 13 17 12.1046 17 11C17 9.89543 16.1046 9 15 9C13.8954 9 13 9.89543 13 11C13 12.1046 13.8954 13 15 13Z" fill="currentColor"/>
  <path d="M9 14C6.79086 14 5 15.7909 5 18V20C5 20.5523 5.44772 21 6 21H12C12.5523 21 13 20.5523 13 20V18C13 15.7909 11.2091 14 9 14Z" fill="currentColor"/>
  <path d="M15 15C13.6739 15 12.4021 15.5268 11.5 16.3879C11.8277 16.7257 12.5 17.5 12.5 18.5V20C12.5 20.2761 12.6055 20.5245 12.7816 20.7071C12.9315 20.8627 13.1216 20.9688 13.3335 20.9964C13.55 21.0265 13.7705 21 14 21H19C19.5523 21 20 20.5523 20 20V18.5C20 16.5 18.5 15 15 15Z" fill="currentColor"/>
</svg>
