<svg width="24" height="24" viewBox="0 0 24 24" fill="none" xmlns="http://www.w3.org/2000/svg">
<path d="M5 6.5C5 7.0625 5.28125 7.53125 5.75 7.8125C6.1875 8.09375 6.78125 8.09375 7.25 7.8125C7.6875 7.53125 8 7.0625 8 6.5C8 5.96875 7.6875 5.5 7.25 5.21875C6.78125 4.9375 6.1875 4.9375 5.75 5.21875C5.28125 5.5 5 5.96875 5 6.5ZM9 6.5C9 7.40625 8.5 8.21875 7.75 8.6875C6.96875 9.125 6 9.125 5.25 8.6875C4.46875 8.21875 4 7.40625 4 6.5C4 5.625 4.46875 4.8125 5.25 4.34375C6 3.90625 6.96875 3.90625 7.75 4.34375C8.5 4.8125 9 5.625 9 6.5ZM12 9C11.2812 9 10.625 9.40625 10.25 10C9.90625 10.625 9.90625 11.4062 10.25 12C10.625 12.625 11.2812 13 12 13C12.6875 13 13.3438 12.625 13.7188 12C14.0625 11.4062 14.0625 10.625 13.7188 10C13.3438 9.40625 12.6875 9 12 9ZM12 14C10.9062 14 9.9375 13.4375 9.375 12.5C8.84375 11.5938 8.84375 10.4375 9.375 9.5C9.9375 8.59375 10.9062 8 12 8C13.0625 8 14.0312 8.59375 14.5938 9.5C15.125 10.4375 15.125 11.5938 14.5938 12.5C14.0312 13.4375 13.0625 14 12 14ZM10.1562 16C8.46875 16 7.0625 17.3438 7 19H16.9688C16.9062 17.3438 15.5 16 13.8125 16H10.1562ZM10.1562 15H13.8125C16.125 15 18 16.875 18 19.1875C18 19.6562 17.625 20 17.1562 20H6.8125C6.34375 20 6 19.625 6 19.1875C6 16.875 7.84375 15 10.1562 15ZM18 5C17.4375 5 16.9688 5.3125 16.6875 5.75C16.4062 6.21875 16.4062 6.8125 16.6875 7.25C16.9688 7.71875 17.4375 8 18 8C18.5312 8 19 7.71875 19.2812 7.25C19.5625 6.8125 19.5625 6.21875 19.2812 5.75C19 5.3125 18.5312 5 18 5ZM18 9C17.0938 9 16.2812 8.53125 15.8125 7.75C15.375 7 15.375 6.03125 15.8125 5.25C16.2812 4.5 17.0938 4 18 4C18.875 4 19.6875 4.5 20.1562 5.25C20.5938 6.03125 20.5938 7 20.1562 7.75C19.6875 8.53125 18.875 9 18 9ZM18.5 11H16C16 10.6562 15.9375 10.3438 15.875 10H18.5C20.4062 10 22 11.5938 22 13.5C22 13.7812 21.75 14 21.5 14C21.2188 14 21 13.7812 21 13.5C21 12.125 19.875 11 18.5 11ZM8 11H5.5C4.09375 11 3 12.125 3 13.5C3 13.7812 2.75 14 2.5 14C2.21875 14 2 13.7812 2 13.5C2 11.5938 3.5625 10 5.5 10H8.125C8.03125 10.3438 8 10.6562 8 11Z" fill="black" fill-opacity="0.72"/>
</svg>
