<svg width="24" height="16" viewBox="0 0 24 16" fill="none" xmlns="http://www.w3.org/2000/svg">
<path d="M1.99988 16C1.42771 16 0.911663 15.7597 0.547119 15.3746L13.9999 0H21.9999C22.5721 0 23.0882 0.240309 23.4527 0.625513L10.0001 16H1.99988Z" fill="#FBDE4A"/>
<path d="M2 0C0.89543 0 0 0.89543 0 2V14C0 14.5324 0.207912 15.0162 0.547119 15.3746L13.9999 0H2Z" fill="#009543"/>
<path d="M10.0001 16L22 16.0001C23.1046 16.0001 24 15.1046 24 14.0001V2.00008C24 1.46768 23.792 0.983888 23.4527 0.625513L10.0001 16Z" fill="#DC241F"/>
<path fill-rule="evenodd" clip-rule="evenodd" d="M22 1H2C1.44772 1 1 1.44772 1 2V14C1 14.5523 1.44772 15 2 15H22C22.5523 15 23 14.5523 23 14V2C23 1.44771 22.5523 1 22 1ZM2 0C0.89543 0 0 0.89543 0 2V14C0 15.1046 0.895315 16 1.99988 16L22 16.0001C23.1046 16.0001 24 15.1046 24 14.0001V2.00008C24 0.895507 23.1045 0 21.9999 0H2Z" fill="black" fill-opacity="0.08"/>
</svg>
