<svg width="24" height="16" viewBox="0 0 24 16" fill="none" xmlns="http://www.w3.org/2000/svg">
<path d="M2.00002 0H22C23.1046 0 24 0.895431 24 2V14C24 14.6124 23.7247 15.1606 23.2912 15.5274L0.708839 0.472549C1.05724 0.177743 1.50789 0 2.00002 0Z" fill="#CE1126"/>
<path d="M22 16H2C0.89543 16 0 15.1046 0 14V1.99999C0 1.38756 0.275273 0.839417 0.708839 0.472549L23.2912 15.5274C22.9428 15.8222 22.4921 16 22 16Z" fill="black"/>
<path fill-rule="evenodd" clip-rule="evenodd" d="M6.00802 7.42432L5.46181 7.71155L5.56613 7.10304L5.12424 6.6731L5.73492 6.58436L6.00802 6.0309L6.28113 6.584L6.89181 6.67274L6.44992 7.10377L6.55423 7.71155" fill="white"/>
<path fill-rule="evenodd" clip-rule="evenodd" d="M6.00802 13.7437L5.46181 14.0309L5.56613 13.4224L5.12424 12.9925L5.73492 12.9037L6.00802 12.3503L6.28113 12.9033L6.89181 12.9921L6.44992 13.4231L6.55423 14.0309" fill="white"/>
<path fill-rule="evenodd" clip-rule="evenodd" d="M4.24039 9.80496L3.69418 10.0922L3.7985 9.48368L3.3566 9.05374L3.96729 8.965L4.24039 8.41155L4.5135 8.96464L5.12418 9.05338L4.68228 9.48441L4.7866 10.0922" fill="white"/>
<path fill-rule="evenodd" clip-rule="evenodd" d="M7.97487 9.66669L7.56522 9.88211L7.64345 9.42573L7.31203 9.10328L7.77004 9.03672L7.97487 8.62163L8.1797 9.03645L8.63771 9.103L8.30629 9.42627L8.38453 9.88211" fill="white"/>
<path fill-rule="evenodd" clip-rule="evenodd" d="M7.33376 11.4889L7.06066 11.6325L7.11282 11.3283L6.89187 11.1133L7.19721 11.0689L7.33376 10.7922L7.47032 11.0687L7.77566 11.1131L7.55471 11.3286L7.60687 11.6325" fill="white"/>
<path fill-rule="evenodd" clip-rule="evenodd" d="M22 1H2C1.44772 1 1 1.44772 1 2V14C1 14.5523 1.44772 15 2 15H22C22.5523 15 23 14.5523 23 14V2C23 1.44771 22.5523 1 22 1ZM2.00002 0C0.895453 0 0 0.89542 0 1.99999V14C0 15.1046 0.89543 16 2 16H22C23.1046 16 24 15.1046 24 14V2C24 0.895431 23.1046 0 22 0H2.00002Z" fill="black" fill-opacity="0.08"/>
</svg>
