<svg width="24" height="16" viewBox="0 0 24 16" fill="none" xmlns="http://www.w3.org/2000/svg">
<path d="M2.00017 0C0.8956 0 0.00016914 0.89543 0.00016914 2L0 13L24.0002 2C24.0002 0.89543 23.1047 0 22.0002 0H2.00017Z" fill="#0051BA"/>
<path d="M0 14C0 15.1046 0.89543 16 2 16H22C23.1046 16 24 15.1046 24 14L24.0002 2L23.9998 3.99997L0.214313 14.9017C0.0772371 14.6307 5.01949e-06 14.3244 0 14Z" fill="#215B33"/>
<path d="M0.214313 14.9017L23.9998 3.99997L24.0002 2L0 13V14C5.01949e-06 14.3244 0.0772371 14.6307 0.214313 14.9017Z" fill="#FCD116"/>
<path fill-rule="evenodd" clip-rule="evenodd" d="M3.05174 3.65822L2.40173 4.00003L2.52587 3.27588L2 2.76424L2.72674 2.65863L3.05174 2L3.37675 2.6582L4.10348 2.7638L3.57761 3.27674L3.70175 4.00003" fill="white"/>
<path fill-rule="evenodd" clip-rule="evenodd" d="M7.2586 3.65822L6.60859 4.00003L6.73273 3.27588L6.20686 2.76424L6.9336 2.65863L7.2586 2L7.58361 2.6582L8.31034 2.7638L7.78447 3.27674L7.90861 4.00003" fill="white"/>
<path fill-rule="evenodd" clip-rule="evenodd" d="M3.05174 7.65818L2.40173 8L2.52587 7.27585L2 6.7642L2.72674 6.6586L3.05174 5.99997L3.37675 6.65817L4.10348 6.76377L3.57761 7.27671L3.70175 8" fill="white"/>
<path fill-rule="evenodd" clip-rule="evenodd" d="M7.2586 7.65818L6.60859 8L6.73273 7.27585L6.20686 6.7642L6.9336 6.6586L7.2586 5.99997L7.58361 6.65817L8.31034 6.76377L7.78447 7.27671L7.90861 8" fill="white"/>
<path fill-rule="evenodd" clip-rule="evenodd" d="M5.15517 5.6582L4.50516 6.00002L4.6293 5.27587L4.10343 4.76422L4.83017 4.65862L5.15517 3.99998L5.48018 4.65818L6.20691 4.76379L5.68104 5.27673L5.80518 6.00002" fill="white"/>
<path fill-rule="evenodd" clip-rule="evenodd" d="M22 1H2C1.44772 1 1 1.44772 1 2V14C1 14.5523 1.44772 15 2 15H22C22.5523 15 23 14.5523 23 14V2C23 1.44771 22.5523 1 22 1ZM2.00017 0C0.8956 0 0.00016914 0.89543 0.00016914 2L0 14C0 15.1046 0.89543 16 2 16H22C23.1046 16 24 15.1046 24 14L24.0002 2C24.0002 0.89543 23.1047 0 22.0002 0H2.00017Z" fill="black" fill-opacity="0.08"/>
</svg>
