<svg width="24" height="16" viewBox="0 0 24 16" fill="none" xmlns="http://www.w3.org/2000/svg">
<path d="M0 13H24V14C24 15.1046 23.1046 16 22 16H2C0.89543 16 0 15.1046 0 14V13Z" fill="#3E5EB9"/>
<path d="M24 4H0V12H24V4Z" fill="#B10C0C"/>
<path d="M24 3H0V4H24V3Z" fill="#FFD900"/>
<path d="M24 12H0V13H24V12Z" fill="#FFD900"/>
<path d="M2 0H22C23.1046 0 24 0.89543 24 2V3H0V2C0 0.89543 0.89543 0 2 0Z" fill="#3E5EB9"/>
<path fill-rule="evenodd" clip-rule="evenodd" d="M9.03661 6.93909V7.73561H8.79661V6.93909H9.03661ZM9.27661 7.73561V6.93909H9.51661V7.73561H9.27661Z" fill="white"/>
<path fill-rule="evenodd" clip-rule="evenodd" d="M12.6819 6.93909V7.73561H12.4419V6.93909H12.6819ZM12.9219 7.73561V6.93909H13.1619V7.73561H12.9219ZM13.4019 7.73561V6.93909H13.6419V7.73561H13.4019Z" fill="black"/>
<path fill-rule="evenodd" clip-rule="evenodd" d="M14.1288 6.93909V7.73561H13.8888V6.93909H14.1288ZM14.3688 7.73561V6.93909H14.6088V7.73561H14.3688ZM14.8488 7.73561V6.93909H15.0888V7.73561H14.8488Z" fill="black"/>
<path fill-rule="evenodd" clip-rule="evenodd" d="M14.1288 8.2643V9.06082H13.8888V8.2643H14.1288ZM14.3688 9.06082V8.2643H14.6088V9.06082H14.3688ZM14.8488 9.06082V8.2643H15.0888V9.06082H14.8488Z" fill="black"/>
<path d="M5.85219 6.62585C5.80084 6.62585 5.76175 6.66379 5.76175 6.70759C5.76175 6.75139 5.80084 6.78933 5.85219 6.78933H8.12297C8.18178 6.73479 8.24172 6.68023 8.30278 6.62585H5.85219Z" fill="#FFD900"/>
<path d="M5.04175 7.22063C4.9904 7.22063 4.95132 7.25858 4.95132 7.30237C4.95132 7.34617 4.9904 7.38411 5.04175 7.38411H7.51559C7.56667 7.33207 7.62119 7.27707 7.67774 7.22063H5.04175Z" fill="#FFD900"/>
<path d="M16.8603 7.38412C16.8819 7.38345 16.9025 7.37476 16.918 7.35976C16.9304 7.34779 16.9389 7.33247 16.9426 7.31581C16.9434 7.31188 16.944 7.30787 16.9443 7.30382C16.9442 7.29993 16.9437 7.29607 16.9431 7.29228C16.94 7.27486 16.9316 7.2587 16.9189 7.24605C16.9033 7.23044 16.8824 7.22135 16.8603 7.22062L16.1754 7.22063C16.2263 7.27584 16.2762 7.33041 16.3252 7.38411L16.8603 7.38412Z" fill="#FFD900"/>
<path d="M17.247 7.38411C17.2983 7.38411 17.3374 7.34617 17.3374 7.30237C17.3374 7.25858 17.2983 7.22063 17.247 7.22063H17.1135C17.1192 7.22444 17.1246 7.22882 17.1295 7.23375C17.1482 7.25248 17.1591 7.27764 17.16 7.30411C17.1583 7.32997 17.147 7.35427 17.1284 7.37227C17.1238 7.37669 17.1189 7.38064 17.1137 7.38411L17.1405 7.38479L17.247 7.38411Z" fill="#FFD900"/>
<path d="M17.8035 7.58134L18.5964 7.30398L17.807 7.02343L17.3073 7.20027C17.3456 7.21989 17.3722 7.25769 17.3722 7.30237C17.3722 7.34823 17.3442 7.38684 17.3042 7.40598L17.8035 7.58134Z" fill="white"/>
<path d="M3.69914 7.86933C3.62945 7.86933 3.57219 7.9273 3.57219 7.99976C3.57219 8.07223 3.62945 8.1302 3.69914 8.1302H4.35463L4.4101 8.05562C4.41541 8.05305 4.42192 8.04991 4.42694 8.04639C4.43475 8.04093 4.44163 8.03302 4.44407 8.02085C4.44622 8.01011 4.44444 7.99803 4.4407 7.98467C4.43886 7.97809 4.43639 7.97069 4.43326 7.96234C4.45035 7.96549 4.47091 7.97014 4.49385 7.97587C4.53282 7.98562 4.57729 7.99813 4.62075 8.01062L4.65953 8.02182C4.68894 8.03033 4.71688 8.03842 4.74086 8.04505C4.75806 8.0498 4.77346 8.05387 4.7861 8.05686C4.79833 8.05975 4.80948 8.06195 4.81707 8.06242C4.84974 8.06401 4.88806 8.05629 4.92717 8.04744L4.94794 8.04268C4.98161 8.03492 5.01645 8.02689 5.05204 8.02205C5.13736 8.01047 5.22228 8.01837 5.29162 8.09171C5.30439 8.10448 5.31554 8.11729 5.32525 8.1302H7.04416C7.00435 8.08959 6.95324 8.03799 6.91538 8.00013C6.95335 7.96205 7.00458 7.9102 7.04453 7.86933H3.69914Z" fill="#FFD900"/>
<path fill-rule="evenodd" clip-rule="evenodd" d="M3.95219 8.28408C3.85391 8.40548 3.76979 8.58876 3.73013 8.80108L3.73464 8.79492L3.73558 8.79358C3.74345 8.78248 3.75111 8.77383 3.78639 8.74737L3.82148 8.72106L3.81641 8.76462C3.80952 8.82387 3.81629 8.86419 3.82865 8.91328L3.8371 8.94561C3.84626 8.98003 3.85699 9.02037 3.86685 9.0728C3.88497 9.04974 3.89628 9.03779 3.9055 9.02804C3.91732 9.01555 3.92574 9.00659 3.94379 8.97605L3.96361 8.94251L3.9776 8.97887C4.00894 9.06036 4.02419 9.13524 4.04269 9.22607C4.04848 9.20443 4.07309 9.2072 4.09099 9.17141L4.10182 9.14974L4.12016 9.16558C4.16758 9.20653 4.19873 9.25226 4.22182 9.29897C4.23482 9.2238 4.25292 9.17613 4.26936 9.1328C4.28243 9.09839 4.29445 9.06672 4.30204 9.02621C4.31141 8.97565 4.31623 8.92931 4.32033 8.88996C4.32893 8.80748 4.33433 8.75562 4.37161 8.75955C4.42958 8.76534 4.44117 8.82621 4.40349 8.97983C4.36626 9.13735 4.33987 9.17504 4.22182 9.29897C4.24203 9.34008 4.25653 9.38291 4.26993 9.42295L4.28036 9.45375C4.3113 9.54318 4.34686 9.62199 4.45058 9.67405C4.45967 9.65794 4.4691 9.64293 4.47916 9.62991C4.4924 9.61278 4.50751 9.59807 4.5255 9.58907L4.53885 9.5824L4.5484 9.59386C4.57452 9.6252 4.60166 9.63971 4.64135 9.65672L4.66223 9.6655C4.68478 9.67491 4.71077 9.68575 4.74109 9.70064C4.73827 9.68165 4.74302 9.66359 4.75212 9.64709C4.77155 9.61188 4.81323 9.57956 4.85745 9.54972C4.87732 9.53632 4.89849 9.52292 4.91947 9.50964L4.928 9.50424C4.95187 9.48912 4.97528 9.47414 4.99675 9.45907C5.04066 9.42824 5.07269 9.3995 5.08483 9.37218L5.09901 9.34027L5.11789 9.36965C5.12619 9.32558 5.14025 9.29204 5.15603 9.25873C5.1643 9.24127 5.17298 9.22475 5.18185 9.20785C5.20226 9.169 5.22372 9.12815 5.24362 9.06944L5.25812 9.02667L5.27832 9.06706C5.28204 9.07451 5.28501 9.08007 5.28748 9.08438C5.2892 9.03965 5.29232 8.99047 5.29555 8.93961C5.29842 8.89435 5.30138 8.84776 5.30351 8.80179C5.30932 8.67664 5.30909 8.55537 5.2867 8.4686L5.31932 8.45172C5.3485 8.4862 5.35948 8.50795 5.36706 8.52295L5.37018 8.52906C5.37337..." fill="#B3B3B3"/>
<path d="M22 1H2C1.44772 1 1 1.44772 1 2V14C1 14.5523 1.44772 15 2 15H22C22.5523 15 23 14.5523 23 14V2C23 1.44771 22.5523 1 22 1ZM2 0C0.89543 0 0 0.89543 0 2V14C0 15.1046 0.89543 16 2 16H22C23.1046 16 24 15.1046 24 14V2C24 0.89543 23.1046 0 22 0H2Z" fill="black" fill-opacity="0.08"/>
</svg>
