<svg width="24" height="16" viewBox="0 0 24 16" fill="none" xmlns="http://www.w3.org/2000/svg">
<path d="M2.00002 0H22C23.1046 0 24 0.895431 24 2V14C24 14.6124 23.7247 15.1606 23.2912 15.5274L0.708839 0.472549C1.05724 0.177743 1.50789 0 2.00002 0Z" fill="#CE1126"/>
<path d="M22 16H2C0.89543 16 0 15.1046 0 14V1.99999C0 1.38756 0.275273 0.839417 0.708839 0.472549L23.2912 15.5274C22.9428 15.8222 22.4921 16 22 16Z" fill="black"/>
<path fill-rule="evenodd" clip-rule="evenodd" d="M16.3024 1.43325L16.3816 1.39741L16.2984 1.81151L16.5601 1.72459L16.3798 2.17392L16.6337 2.25825L16.4627 2.51384V2.73348L16.6285 2.71512L16.565 2.90502C17.0335 2.62336 17.5724 2.49218 18.0441 2.72719L18.1407 2.7753L17.8964 2.85646C17.9416 2.88269 17.9934 2.91578 18.048 2.95231C18.1507 3.02106 18.2675 3.10486 18.3772 3.18587C18.487 3.26692 18.5902 3.34541 18.6659 3.40362L18.7563 3.47356L18.7812 3.49301L18.7894 3.49945L18.8785 3.56955L18.6626 3.58826L19.35 4.44858L19.1424 4.41098C19.19 4.51407 19.2527 4.67057 19.3079 4.81305C19.345 4.90874 19.3793 4.9996 19.4043 5.06652L19.4341 5.1466L19.4422 5.16874L19.4449 5.17604L19.4462 5.17955C19.449 5.1893 19.4592 5.21302 19.4755 5.24682C19.4912 5.2792 19.5108 5.31739 19.5299 5.35411C19.5491 5.39077 19.5678 5.4257 19.5816 5.45149L19.5983 5.48233L19.6042 5.49304L19.6697 5.61272L19.3817 5.47882L19.4456 5.82233C19.5041 5.91804 19.5815 6.01459 19.6674 6.12122L19.6709 6.12564C19.7572 6.2328 19.851 6.34924 19.9373 6.48086C20.1132 6.7489 20.259 7.08058 20.259 7.53584V7.53927C20.2169 8.08419 19.859 8.48025 19.4224 8.68744C18.9869 8.89405 18.4644 8.91704 18.0838 8.70638L17.9641 8.64013L18.0999 8.62322C18.4226 8.58303 18.8225 8.50296 19.1507 8.34442C19.4783 8.18613 19.7253 7.95451 19.7643 7.61418C19.7639 7.46037 19.7252 7.30489 19.6754 7.15593C19.6504 7.08118 19.6228 7.00875 19.5962 6.93926L19.5916 6.92737C19.5832 6.90547 19.5749 6.88382 19.5669 6.86252C19.4971 7.06387 19.415 7.26368 19.2725 7.40573C19.0612 7.61629 18.7267 7.761 18.3845 7.80232C18.0424 7.84365 17.6838 7.78253 17.428 7.5701L17.3108 7.47282L17.462 7.49164C17.78 7.53125 18.176 7.49115 18.4805 7.33458C18.6322 7.25656 18.7596 7.15045 18.8444 7.01241C18.9288 6.87506 18.9727 6.70331 18.9534 6.49027C18.9151 6.22552 18.7442 6.03345 18.5171 5.88592C18.3109 5.75189 18.0628 5.65763 17.8371 5.58098L17.8702 5.77877L17.7617 5.85084L18.1335 6.40665L17.8555 6.3143L18.1059 6.97964L17.947 6.90047L18.0945 7.26791L18.0178 7.25659C17.9846 7.2516..." fill="#FF0000"/>
<path fill-rule="evenodd" clip-rule="evenodd" d="M6.00802 7.42432L5.46181 7.71155L5.56613 7.10304L5.12424 6.6731L5.73492 6.58436L6.00802 6.0309L6.28113 6.584L6.89181 6.67274L6.44992 7.10377L6.55423 7.71155" fill="white"/>
<path fill-rule="evenodd" clip-rule="evenodd" d="M6.00802 13.7437L5.46181 14.0309L5.56613 13.4224L5.12424 12.9925L5.73492 12.9037L6.00802 12.3503L6.28113 12.9033L6.89181 12.9921L6.44992 13.4231L6.55423 14.0309" fill="white"/>
<path fill-rule="evenodd" clip-rule="evenodd" d="M4.24039 9.80496L3.69418 10.0922L3.7985 9.48368L3.3566 9.05374L3.96729 8.965L4.24039 8.41155L4.5135 8.96464L5.12418 9.05338L4.68228 9.48441L4.7866 10.0922" fill="white"/>
<path fill-rule="evenodd" clip-rule="evenodd" d="M7.97487 9.66669L7.56522 9.88211L7.64345 9.42573L7.31203 9.10328L7.77004 9.03672L7.97487 8.62163L8.1797 9.03645L8.63771 9.103L8.30629 9.42627L8.38453 9.88211" fill="white"/>
<path fill-rule="evenodd" clip-rule="evenodd" d="M7.33376 11.4889L7.06066 11.6325L7.11282 11.3283L6.89187 11.1133L7.19721 11.0689L7.33376 10.7922L7.47032 11.0687L7.77566 11.1131L7.55471 11.3286L7.60687 11.6325" fill="white"/>
<path fill-rule="evenodd" clip-rule="evenodd" d="M22 1H2C1.44772 1 1 1.44772 1 2V14C1 14.5523 1.44772 15 2 15H22C22.5523 15 23 14.5523 23 14V2C23 1.44771 22.5523 1 22 1ZM2.00002 0C0.895453 0 0 0.89542 0 1.99999V14C0 15.1046 0.89543 16 2 16H22C23.1046 16 24 15.1046 24 14V2C24 0.895431 23.1046 0 22 0H2.00002Z" fill="black" fill-opacity="0.08"/>
</svg>
