<svg width="18" height="18" viewBox="0 0 18 18" fill="none" xmlns="http://www.w3.org/2000/svg">
<g clip-path="url(#clip0_20256_39354)">
<path d="M17.998 8.99898C17.998 13.969 13.969 17.998 8.99898 17.998C4.02898 17.998 0 13.969 0 8.99898C0 4.02898 4.02898 0 8.99898 0C13.969 0 17.998 4.02898 17.998 8.99898Z" fill="#FFDA5B"/>
<path d="M14.7364 2.06588C14.3457 1.74221 13.9272 1.45093 13.4851 1.19615L1.19615 13.4851C1.45093 13.9272 1.74221 14.3457 2.06588 14.7364L14.7364 2.06588Z" fill="#FDF1CA"/>
<path d="M4.34303 16.7014C3.69318 16.3078 3.09714 15.8342 2.56853 15.2943L15.2943 2.56854C15.8342 3.09714 16.3078 3.69318 16.7014 4.34303L4.34303 16.7014Z" fill="#FDF1CA"/>
<path d="M6.97198 17.7688C6.69086 17.704 6.41477 17.6262 6.1444 17.5358L17.5358 6.1444C17.6262 6.41477 17.704 6.69086 17.7688 6.97198L6.97198 17.7688Z" fill="#FDF1CA"/>
<path d="M16.3107 8.99898C16.3107 13.0371 13.0371 16.3107 8.99898 16.3107C4.96086 16.3107 1.68731 13.0371 1.68731 8.99898C1.68731 4.96086 4.96086 1.68731 8.99898 1.68731C13.0371 1.68731 16.3107 4.96086 16.3107 8.99898Z" fill="#FFC329"/>
<path d="M8.99898 16.3107C13.0371 16.3107 16.3107 13.0371 16.3107 8.99898C16.3107 7.75967 16.0023 6.59238 15.4582 5.56962C10.6988 6.94754 6.94752 10.6988 5.56955 15.4581C6.59232 16.0023 7.75964 16.3107 8.99898 16.3107Z" fill="#F8B712"/>
<path d="M14.4427 4.11767C13.1483 2.95624 11.4374 2.24975 9.56142 2.24975C5.52329 2.24975 2.24975 5.52329 2.24975 9.56142C2.24975 11.4374 2.95624 13.1483 4.11767 14.4427C2.62581 13.1041 1.68731 11.1611 1.68731 8.99898C1.68731 4.96086 4.96086 1.68731 8.99898 1.68731C11.1611 1.68731 13.1041 2.62581 14.4427 4.11767Z" fill="#DB9E43"/>
</g>
<defs>
<clipPath id="clip0_20256_39354">
<rect width="17.998" height="17.998" fill="white"/>
</clipPath>
</defs>
</svg>
