<svg width="20" height="18" viewBox="0 0 20 18" fill="none" xmlns="http://www.w3.org/2000/svg">
<g clip-path="url(#clip0_21373_24334)">
<path d="M10.0001 8.60547H0L5.00006 17.2101L10.0001 8.60547Z" fill="#DAAF0A"/>
<path d="M14.9999 17.2101L10.0001 8.60547L5 17.2101H14.9999Z" fill="#A18107"/>
<path d="M19.9999 8.60547H10L14.9998 17.2101L19.9999 8.60547Z" fill="#A18107"/>
<path d="M14.9998 0L10 8.60465H19.9999L14.9998 0Z" fill="#F9D754"/>
<path d="M5 0L10.0001 8.60465L14.9999 0H5Z" fill="#A18107"/>
<path d="M0 8.60465H10.0001L5.00006 0L0 8.60465Z" fill="#A18107"/>
<path d="M10.0009 8.60547H1.75977L5.88034 15.6966L10.0009 8.60547Z" fill="#F9D754"/>
<path d="M14.1215 15.6966L10.0009 8.60547L5.88037 15.6966H14.1215Z" fill="#DAAF0A"/>
<path d="M18.2421 8.60547H10.001L14.1216 15.6966L18.2421 8.60547Z" fill="#BD9808"/>
<path d="M14.1216 1.51367L10.001 8.60478H18.2421L14.1216 1.51367Z" fill="#F7C60B"/>
<path d="M5.88037 1.51367L10.0009 8.60478L14.1215 1.51367H5.88037Z" fill="#DAAF0A"/>
<path d="M1.75977 8.60478H10.0009L5.88034 1.51367L1.75977 8.60478Z" fill="#BD9808"/>
</g>
<defs>
<clipPath id="clip0_21373_24334">
<rect width="20" height="17.2093" fill="white"/>
</clipPath>
</defs>
</svg>
