<svg width="36" height="36" viewBox="0 0 36 36" fill="none" xmlns="http://www.w3.org/2000/svg">
<path d="M32.9985 18.3505C32.9985 17.3221 32.9039 16.2937 32.7233 15.2822H18.3037V21.0816H26.541C26.1971 22.9361 25.0965 24.5713 23.4886 25.6081L28.4327 29.3761C31.3304 26.763 32.9985 22.9192 32.9985 18.3505Z" fill="#3E82F1"/>
<path d="M23.4909 25.6106C22.1237 26.5125 20.3696 27.0436 18.306 27.0436C14.3163 27.0436 10.9457 24.4052 9.74195 20.8564L4.62587 24.7424C7.2226 29.8084 12.5193 33.0115 18.306 33.0031C22.4419 33.0031 25.907 31.6628 28.435 29.3701L23.4909 25.6106Z" fill="#32A753"/>
<path d="M9.74119 15.1545L4.62511 11.2686C2.4583 15.5085 2.4583 20.5071 4.62511 24.747L9.74119 20.8611C9.1049 19.0067 9.1049 17.0005 9.74119 15.1545Z" fill="#F9BB00"/>
<path d="M18.306 3C12.5192 3 7.22173 6.20302 4.625 11.269L9.74108 15.155C10.9449 11.6062 14.3163 8.96796 18.306 8.96796C20.5502 8.96796 22.5708 9.7266 24.153 11.2102L28.5468 6.90278C25.8984 4.48356 22.4333 3 18.306 3Z" fill="#E74133"/>
</svg>
