<svg width="24" height="24" viewBox="0 0 24 24" fill="none" xmlns="http://www.w3.org/2000/svg"><path d="M8.6875 5.3125L11.6875 8.3125C12.0938 8.6875 12.0938 9.34375 11.6875 9.71875C11.3125 10.125 10.6562 10.125 10.2812 9.71875L9 8.4375V18C9 18.5625 8.53125 19 8 19C7.4375 19 7 18.5625 7 18V8.4375L5.6875 9.71875C5.3125 10.125 4.65625 10.125 4.28125 9.71875C3.875 9.34375 3.875 8.6875 4.28125 8.3125L7.28125 5.3125C7.65625 4.90625 8.3125 4.90625 8.6875 5.3125ZM19.6875 15.7188L16.6875 18.7188C16.3125 19.125 15.6562 19.125 15.2812 18.7188L12.2812 15.7188C11.875 15.3438 11.875 14.6875 12.2812 14.3125C12.6562 13.9062 13.3125 13.9062 13.6875 14.3125L15 15.5938V6C15 5.46875 15.4375 5 16 5C16.5312 5 17 5.46875 17 6V15.5938L18.2812 14.3125C18.6562 13.9062 19.3125 13.9062 19.6875 14.3125C20.0938 14.6875 20.0938 15.3438 19.6875 15.7188Z" fill-opacity="0.72"/></svg>
