<svg width="24" height="24" viewBox="0 0 24 24" fill="none" xmlns="http://www.w3.org/2000/svg">
<path d="M5 11.5C5 12.6875 5.46875 13.7188 6.25 14.625C6.40625 14.8438 6.5 15.0938 6.46875 15.375C6.375 16.2188 6.125 17.0312 5.65625 17.7812C5.65625 17.7812 5.625 17.8125 5.625 17.8438C5.96875 17.75 6.3125 17.625 6.625 17.5L6.84375 17.9375L6.625 17.5C7.15625 17.25 7.65625 16.9688 8.15625 16.625C8.40625 16.4375 8.75 16.4062 9.0625 16.5C10.0312 16.8438 11 17 12 17C16.0625 17 19 14.375 19 11.5C19 8.65625 16.0625 6 12 6C7.90625 6 5 8.65625 5 11.5ZM12 5C16.4062 5 20 7.9375 20 11.5C20 15.0938 16.4062 18 12 18C10.875 18 9.78125 17.8125 8.75 17.4688C8.71875 17.4375 8.71875 17.4688 8.71875 17.4688C8.1875 17.8125 7.625 18.1562 7.03125 18.4062C6.28125 18.75 5.375 19 4.46875 19C4.28125 19 4.09375 18.9062 4.03125 18.7188C3.9375 18.5312 4 18.3125 4.125 18.1562C4.375 17.9062 4.59375 17.5938 4.8125 17.25C5.1875 16.6562 5.375 16 5.46875 15.2812C4.59375 14.25 4 12.9688 4 11.5C4 7.9375 7.5625 5 12 5ZM8 12.25C7.5625 12.25 7.25 11.9375 7.25 11.5C7.25 11.0938 7.5625 10.75 8 10.75C8.40625 10.75 8.75 11.0938 8.75 11.5C8.75 11.9375 8.40625 12.25 8 12.25ZM12 12.25C11.5625 12.25 11.25 11.9375 11.25 11.5C11.25 11.0938 11.5625 10.75 12 10.75C12.4062 10.75 12.75 11.0938 12.75 11.5C12.75 11.9375 12.4062 12.25 12 12.25ZM16.75 11.5C16.75 11.9375 16.4062 12.25 16 12.25C15.5625 12.25 15.25 11.9375 15.25 11.5C15.25 11.0938 15.5625 10.75 16 10.75C16.4062 10.75 16.75 11.0938 16.75 11.5Z" fill="#181C25"/>
</svg>
