<svg width="24" height="24" viewBox="0 0 24 24" fill="none" xmlns="http://www.w3.org/2000/svg"><path d="M2 7C2 5.34375 3.34375 4 5 4H14H15C15.5312 4 16 4.46875 16 5V10.2188C13.6875 10.875 12 13 12 15.5C12 15.6875 12 15.8438 12 16H5C4.4375 16 4 16.4688 4 17C4 17.5625 4.4375 18 5 18H12.5938C13 18.8125 13.5938 19.5 14.3125 20H14H5C3.34375 20 2 18.6562 2 17V7ZM6 8.5C6 8.78125 6.21875 9 6.5 9H12.5C12.75 9 13 8.78125 13 8.5C13 8.25 12.75 8 12.5 8H6.5C6.21875 8 6 8.25 6 8.5ZM6 10.5C6 10.7812 6.21875 11 6.5 11H12.5C12.75 11 13 10.7812 13 10.5C13 10.25 12.75 10 12.5 10H6.5C6.21875 10 6 10.25 6 10.5ZM13 15.5C13 13.0312 15 11 17.5 11C19.9688 11 22 13.0312 22 15.5C22 18 19.9688 20 17.5 20C15 20 13 18 13 15.5ZM15.5 14.0625V14.25C15.5 14.5312 15.7188 14.75 16 14.75C16.25 14.75 16.5 14.5312 16.5 14.25V14.0625C16.5 13.9062 16.625 13.75 16.7812 13.75H18.0625C18.2812 13.75 18.5 13.9688 18.5 14.1875C18.5 14.375 18.4062 14.5 18.25 14.5938L17.25 15.0938C17.0938 15.1875 17 15.375 17 15.5625V16C17 16.2812 17.2188 16.5 17.5 16.5C17.75 16.5 18 16.2812 18 16V15.8438L18.7188 15.4688C19.1875 15.2188 19.5 14.7188 19.5 14.1875C19.5 13.4062 18.8438 12.7812 18.0625 12.7812H16.7812C16.0625 12.7812 15.5 13.3438 15.5 14.0625ZM16.75 17.75C16.75 18.1875 17.0625 18.5 17.5 18.5C17.9062 18.5 18.25 18.1875 18.25 17.75C18.25 17.3438 17.9062 17 17.5 17C17.0625 17 16.75 17.3438 16.75 17.75Z" fill-opacity="0.72"/></svg>
