<svg width="24" height="24" viewBox="0 0 24 24" fill="none" xmlns="http://www.w3.org/2000/svg">
<path d="M2 6C2 4.90625 2.90625 4 4 4H14.5C15.3438 4 16 4.6875 16 5.5V10.2188C15.6562 10.3125 15.3125 10.4375 15 10.5938V5.5C15 5.21875 14.7812 5 14.5 5H6V16H12.0312C12.0625 16.3438 12.125 16.6875 12.2188 17H4C3.4375 17 3 17.4375 3 18C3 18.5625 3.4375 19 4 19H13.25C13.5625 19.375 13.9375 19.7188 14.3438 20H4C2.90625 20 2 19.0938 2 18V6ZM3 6V16.2812C3.28125 16.0938 3.625 16 4 16H5V5H4C3.4375 5 3 5.4375 3 6ZM7.5 8.5C7.5 8.21875 7.71875 8 8 8H13C13.2812 8 13.5 8.21875 13.5 8.5C13.5 8.78125 13.2812 9 13 9H8C7.71875 9 7.5 8.78125 7.5 8.5ZM7.5 11.5C7.5 11.2188 7.71875 11 8 11H13C13.2812 11 13.5 11.2188 13.5 11.5C13.5 11.7812 13.2812 12 13 12H8C7.71875 12 7.5 11.7812 7.5 11.5ZM13 15.5C13 13.0312 15.0312 11 17.5 11C20 11 22 13.0312 22 15.5C22 18 20 20 17.5 20C15.0312 20 13 18 13 15.5ZM14 15.5C14 17.4375 15.5625 19 17.5 19C19.4375 19 21 17.4375 21 15.5C21 13.5625 19.4375 12 17.5 12C15.5625 12 14 13.5625 14 15.5ZM15.5 14.3125C15.5 13.5938 16.0938 13 16.8125 13H18.0625C18.875 13 19.5 13.6562 19.5 14.4375C19.5 14.9688 19.2188 15.4688 18.75 15.7188L18 16.0938C17.9375 16.3125 17.75 16.5 17.5 16.5C17.2188 16.5 17 16.2812 17 16V15.7812C17 15.5938 17.0938 15.4375 17.2812 15.3438L18.2812 14.8125C18.4062 14.75 18.5 14.5938 18.5 14.4375C18.5 14.1875 18.3125 14 18.0625 14H16.8125C16.625 14 16.5 14.125 16.5 14.3125V14.5C16.5 14.7812 16.2812 15 16 15C15.7188 15 15.5 14.7812 15.5 14.5V14.3125ZM17 17.5C17 17.2188 17.2188 17 17.5 17C17.7812 17 18 17.2188 18 17.5C18 17.7812 17.7812 18 17.5 18C17.2188 18 17 17.7812 17 17.5Z" />
</svg>
