<svg width="24" height="24" viewBox="0 0 24 24" fill="none" xmlns="http://www.w3.org/2000/svg">
<path d="M16.6799 16.5859C16.2943 18.7592 14.2454 20.4998 12.0315 20.5H9.6565C8.17426 20.5 6.9121 19.9022 6.08814 18.9092C5.26466 17.9165 4.90545 16.562 5.16333 15.1006L5.16529 15.0947L5.38306 13.9443C5.89256 11.0575 8.62434 8.6875 11.5627 8.6875H13.9885L14.8206 4.09668L18.9895 3.38867L16.6799 16.5859ZM15.678 4.96484L14.8235 9.6875H11.5627C9.1262 9.6875 6.79549 11.6926 6.36744 14.1182L6.36646 14.124L6.14771 15.2803C5.93886 16.4727 6.23686 17.5222 6.85767 18.2705C7.47903 19.0194 8.45141 19.5 9.6565 19.5H12.0315C13.7544 19.4998 15.392 18.1149 15.6946 16.4141L17.759 4.61133L15.678 4.96484ZM14.4993 11.5625L13.7112 16.1475L13.7102 16.1562L13.7083 16.165C13.5397 16.9658 12.823 17.6248 11.969 17.625H10.5002C8.99872 17.625 7.95175 16.3711 8.22681 14.8779L8.35083 14.1641L8.35181 14.1592C8.61141 12.7505 9.93076 11.5625 11.4065 11.5625H14.4993ZM11.4065 12.5625C10.4448 12.5625 9.5132 13.3746 9.33521 14.3408L9.21119 15.0547L9.21021 15.0596C9.04793 15.9413 9.62687 16.625 10.5002 16.625H11.969C12.3003 16.6248 12.6429 16.3489 12.7268 15.9658L13.3127 12.5625H11.4065Z" fill-opacity="0.72"/>
</svg>
