<svg width="24" height="24" viewBox="0 0 24 24" fill="none" xmlns="http://www.w3.org/2000/svg">
<path d="M8.34375 5.15625L11.3438 8.15625C11.5312 8.34375 11.5312 8.6875 11.3438 8.875C11.1562 9.0625 10.8125 9.0625 10.625 8.875L8.5 6.71875V18.5C8.5 18.7812 8.25 19 8 19C7.71875 19 7.5 18.7812 7.5 18.5V6.71875L5.34375 8.875C5.15625 9.0625 4.8125 9.0625 4.625 8.875C4.4375 8.6875 4.4375 8.34375 4.625 8.15625L7.625 5.15625C7.8125 4.96875 8.15625 4.96875 8.34375 5.15625ZM19.3438 15.875L16.3438 18.875C16.1562 19.0625 15.8125 19.0625 15.625 18.875L12.625 15.875C12.4375 15.6875 12.4375 15.3438 12.625 15.1562C12.8125 14.9688 13.1562 14.9688 13.3438 15.1562L15.5 17.3125V5.5C15.5 5.25 15.7188 5 16 5C16.25 5 16.5 5.25 16.5 5.5V17.3125L18.625 15.1562C18.8125 14.9688 19.1562 14.9688 19.3438 15.1562C19.5312 15.3438 19.5312 15.6875 19.3438 15.875Z" />
</svg>
