<svg width="24" height="24" viewBox="0 0 24 24" fill="none" xmlns="http://www.w3.org/2000/svg">
<path d="M8.3125 13H13C13.5312 13 14 12.5625 14 12V6C14 5.46875 13.5312 5 13 5H4C3.4375 5 3 5.46875 3 6V12C3 12.5625 3.4375 13 4 13H5C5.53125 13 6 13.4688 6 14V14.5L7.71875 13.2188C7.90625 13.0938 8.09375 13 8.3125 13ZM13 14H8.3125L5.78125 15.9062C5.625 16.0312 5.4375 16.0312 5.25 15.9688C5.09375 15.875 5 15.7188 5 15.5V15V14H4C2.875 14 2 13.125 2 12V6C2 4.90625 2.875 4 4 4H13C14.0938 4 15 4.90625 15 6V12C15 13.125 14.0938 14 13 14ZM12 18C10.875 18 10 17.125 10 16V15H11V16C11 16.5625 11.4375 17 12 17H15.6562C15.875 17 16.0938 17.0938 16.25 17.2188L18 18.5V18C18 17.4688 18.4375 17 19 17H20C20.5312 17 21 16.5625 21 16V10C21 9.46875 20.5312 9 20 9H16V8H20C21.0938 8 22 8.90625 22 10V16C22 17.125 21.0938 18 20 18H19V19V19.5C19 19.7188 18.875 19.875 18.7188 19.9688C18.5312 20.0312 18.3438 20.0312 18.1875 19.9062L15.6562 18H12ZM7.75 6.21875C7.21875 6.21875 6.78125 6.53125 6.59375 7V7.03125C6.5 7.3125 6.65625 7.59375 6.90625 7.6875C7.15625 7.78125 7.4375 7.625 7.53125 7.375L7.5625 7.34375C7.5625 7.25 7.65625 7.21875 7.75 7.21875H9.03125C9.25 7.21875 9.40625 7.375 9.40625 7.5625C9.40625 7.71875 9.34375 7.84375 9.21875 7.90625L8.25 8.46875C8.09375 8.5625 8 8.71875 8 8.90625V9.1875C8 9.46875 8.21875 9.6875 8.5 9.6875C8.75 9.6875 9 9.46875 9 9.1875L9.71875 8.75C10.1562 8.53125 10.4062 8.0625 10.4062 7.59375C10.4062 6.8125 9.78125 6.21875 9.03125 6.21875H7.75ZM8.5 11.8438C8.75 11.875 9 11.75 9.125 11.5C9.28125 11.2812 9.28125 11 9.125 10.7812C9 10.5625 8.75 10.4062 8.5 10.4375C8.21875 10.4062 7.96875 10.5625 7.84375 10.7812C7.6875 11 7.6875 11.2812 7.84375 11.5C7.96875 11.75 8.21875 11.875 8.5 11.8438Z" fill="#181C25"/>
</svg>
