<svg width="24" height="24" viewBox="0 0 24 24" fill="none" xmlns="http://www.w3.org/2000/svg">
<path d="M5 6C4.4375 6 4 6.46875 4 7V17C4 17.5625 4.4375 18 5 18H19C19.5312 18 20 17.5625 20 17V7C20 6.46875 19.5312 6 19 6H5ZM3 7C3 5.90625 3.875 5 5 5H19C20.0938 5 21 5.90625 21 7V17C21 18.125 20.0938 19 19 19H5C3.875 19 3 18.125 3 17V7ZM9.6875 9.3125L11.9375 14.3125C12.0625 14.5625 11.9375 14.8438 11.6875 14.9688C11.4375 15.0938 11.1562 14.9688 11.0312 14.7188L10.7188 14H7.75L7.4375 14.7188C7.34375 14.9688 7.03125 15.0938 6.78125 14.9688C6.53125 14.8438 6.40625 14.5625 6.53125 14.3125L8.78125 9.3125C8.875 9.125 9.03125 9 9.25 9C9.4375 9 9.625 9.125 9.6875 9.3125ZM9.25 10.7188L8.21875 13H10.25L9.25 10.7188ZM14.75 11.5C14.2812 11.5 13.875 11.75 13.6562 12.125C13.4375 12.5312 13.4375 13 13.6562 13.375C13.875 13.7812 14.2812 14 14.75 14C15.1875 14 15.5938 13.7812 15.8125 13.375C16.0312 13 16.0312 12.5312 15.8125 12.125C15.5938 11.75 15.1875 11.5 14.75 11.5ZM16 10.9062V9.5C16 9.25 16.2188 9 16.5 9C16.75 9 17 9.25 17 9.5V12.75V14.5C17 14.7812 16.75 15 16.5 15C16.25 15 16.0625 14.8438 16 14.625C15.625 14.875 15.2188 15 14.75 15C13.5 15 12.5 14 12.5 12.75C12.5 11.5312 13.5 10.5 14.75 10.5C15.1875 10.5 15.625 10.6562 16 10.9062Z" />
</svg>
