<svg width="24" height="24" viewBox="0 0 24 24" fill="none" xmlns="http://www.w3.org/2000/svg"><path d="M5 7C5 5.90625 5.875 5 7 5H17C18.0938 5 19 5.90625 19 7V17C19 18.125 18.0938 19 17 19H7C5.875 19 5 18.125 5 17V7ZM8 13C8.53125 13 9 12.5625 9 12C9 11.4688 8.53125 11 8 11C7.4375 11 7 11.4688 7 12C7 12.5625 7.4375 13 8 13ZM9 9C9 8.46875 8.53125 8 8 8C7.4375 8 7 8.46875 7 9C7 9.5625 7.4375 10 8 10C8.53125 10 9 9.5625 9 9ZM8 16C8.53125 16 9 15.5625 9 15C9 14.4688 8.53125 14 8 14C7.4375 14 7 14.4688 7 15C7 15.5625 7.4375 16 8 16ZM11 8.25C10.5625 8.25 10.25 8.59375 10.25 9C10.25 9.4375 10.5625 9.75 11 9.75H16C16.4062 9.75 16.75 9.4375 16.75 9C16.75 8.59375 16.4062 8.25 16 8.25H11ZM11 11.25C10.5625 11.25 10.25 11.5938 10.25 12C10.25 12.4375 10.5625 12.75 11 12.75H16C16.4062 12.75 16.75 12.4375 16.75 12C16.75 11.5938 16.4062 11.25 16 11.25H11ZM11 14.25C10.5625 14.25 10.25 14.5938 10.25 15C10.25 15.4375 10.5625 15.75 11 15.75H16C16.4062 15.75 16.75 15.4375 16.75 15C16.75 14.5938 16.4062 14.25 16 14.25H11Z" fill-opacity="0.72"/></svg>
