<svg width="24" height="24" viewBox="0 0 24 24" fill="none" xmlns="http://www.w3.org/2000/svg">
<path d="M15 8C15 6.9375 14.4062 5.96875 13.5 5.40625C12.5625 4.875 11.4062 4.875 10.5 5.40625C9.5625 5.96875 9 6.9375 9 8C9 9.09375 9.5625 10.0625 10.5 10.625C11.4062 11.1562 12.5625 11.1562 13.5 10.625C14.4062 10.0625 15 9.09375 15 8ZM8 8C8 6.59375 8.75 5.28125 10 4.5625C11.2188 3.84375 12.75 3.84375 14 4.5625C15.2188 5.28125 16 6.59375 16 8C16 9.4375 15.2188 10.75 14 11.4688C12.75 12.1875 11.2188 12.1875 10 11.4688C8.75 10.75 8 9.4375 8 8ZM6 19H18C17.9375 16.5312 15.9062 14.5 13.4062 14.5H10.5625C8.0625 14.5 6.03125 16.5312 6 19ZM5 19.0938C5 16 7.46875 13.5 10.5625 13.5H13.4062C16.5 13.5 19 16 19 19.0938C19 19.5938 18.5625 20 18.0625 20H5.90625C5.40625 20 5 19.5938 5 19.0938Z" />
</svg>
