<svg width="56" height="56" viewBox="0 0 56 56" fill="none" xmlns="http://www.w3.org/2000/svg">
<path d="M28 0C19.6372 0 12.1306 3.66628 7 9.47923L42 3.7459C37.8816 1.36352 33.1 0 28 0Z" fill="#303541"/>
<path fill-rule="evenodd" clip-rule="evenodd" d="M0 28C0 43.464 12.536 56 28 56C34.2251 56 39.9756 53.9686 44.625 50.5324L51.7264 13.125C49.2996 9.2623 45.9557 6.03414 42 3.7459L7 9.47923C2.64346 14.4152 0 20.8989 0 28Z" fill="#414652"/>
<path d="M44.625 50.5324C51.5253 45.4327 56 37.2389 56 28C56 22.5345 54.4341 17.4348 51.7264 13.125L44.625 50.5324Z" fill="#303541"/>
<path d="M14.0667 20.1171C16.4175 20.1171 18.2224 20.5342 19.4812 21.3683C20.74 22.1874 21.3694 23.5372 21.3694 25.4179C21.3694 27.3137 20.7324 28.6863 19.4584 29.5356C18.1844 30.3698 16.3644 30.7869 13.9984 30.7869H12.8837V36.0649H9.33469V20.5266C10.1082 20.3749 10.9272 20.2688 11.7917 20.2081C12.6562 20.1474 13.4145 20.1171 14.0667 20.1171ZM14.2942 23.1429C14.0364 23.1429 13.7785 23.1504 13.5207 23.1656C13.278 23.1808 13.0657 23.1959 12.8837 23.2111V27.7611H13.9984C15.2269 27.7611 16.1521 27.5943 16.7739 27.2606C17.3958 26.9269 17.7067 26.3051 17.7067 25.3951C17.7067 24.9553 17.6233 24.5913 17.4564 24.3031C17.3048 24.0149 17.0773 23.7874 16.7739 23.6206C16.4858 23.4386 16.1294 23.3173 15.7047 23.2566C15.28 23.1808 14.8099 23.1429 14.2942 23.1429Z" fill="white"/>
<path d="M32.3021 24.4396C32.3021 25.0159 32.1883 25.5695 31.9608 26.1003C31.7333 26.6312 31.4376 27.1469 31.0736 27.6474C30.7096 28.1327 30.3001 28.6029 29.8451 29.0579C29.3901 29.5129 28.9426 29.9451 28.5028 30.3546C28.2753 30.5669 28.0251 30.8096 27.7521 31.0826C27.4942 31.3404 27.244 31.6059 27.0013 31.8789C26.7586 32.1519 26.5387 32.4097 26.3416 32.6524C26.1596 32.8799 26.0458 33.0694 26.0003 33.2211H32.7798V36.0649H22.2693C22.239 35.898 22.2238 35.6857 22.2238 35.4279C22.2238 35.17 22.2238 34.988 22.2238 34.8819C22.2238 34.1539 22.3376 33.4865 22.5651 32.8799C22.8077 32.2732 23.1186 31.712 23.4978 31.1964C23.877 30.6655 24.3016 30.1726 24.7718 29.7176C25.2571 29.2626 25.7349 28.8076 26.2051 28.3526C26.5691 28.0038 26.9103 27.6777 27.2288 27.3744C27.5473 27.0559 27.8279 26.7525 28.0706 26.4644C28.3132 26.161 28.5028 25.8653 28.6393 25.5771C28.7758 25.2738 28.8441 24.9704 28.8441 24.6671C28.8441 23.9998 28.6545 23.5296 28.2753 23.2566C27.8961 22.9836 27.426 22.8471 26.8648 22.8471C26.4553 22.8471 26.0686 22.9154 25.7046 23.0519C25.3557 23.1732 25.0296 23.3249 24.7263 23.5069C24.4381 23.6737 24.1879 23.8481 23.9756 24.0301C23.7632 24.1969 23.604 24.3334 23.4978 24.4396L21.8143 22.0736C22.4816 21.4518 23.2551 20.9437 24.1348 20.5494C25.0296 20.1399 25.9851 19.9351 27.0013 19.9351C27.9265 19.9351 28.7227 20.0413 29.3901 20.2536C30.0574 20.4659 30.6034 20.7693 31.0281 21.1636C31.4679 21.5428 31.7864 22.0129 31.9836 22.5741C32.1959 23.1201 32.3021 23.7419 32.3021 24.4396Z" fill="white"/>
<path d="M39.3627 20.1171C41.7136 20.1171 43.5184 20.5342 44.7772 21.3683C46.0361 22.1874 46.6655 23.5372 46.6655 25.4179C46.6655 27.3137 46.0285 28.6863 44.7545 29.5356C43.4805 30.3698 41.6605 30.7869 39.2945 30.7869H38.1797V36.0649H34.6307V20.5266C35.4042 20.3749 36.2232 20.2688 37.0877 20.2081C37.9522 20.1474 38.7106 20.1171 39.3627 20.1171ZM39.5902 23.1429C39.3324 23.1429 39.0746 23.1504 38.8167 23.1656C38.5741 23.1808 38.3617 23.1959 38.1797 23.2111V27.7611H39.2945C40.523 27.7611 41.4481 27.5943 42.07 27.2606C42.6918 26.9269 43.0027 26.3051 43.0027 25.3951C43.0027 24.9553 42.9193 24.5913 42.7525 24.3031C42.6008 24.0149 42.3733 23.7874 42.07 23.6206C41.7818 23.4386 41.4254 23.3173 41.0007 23.2566C40.5761 23.1808 40.1059 23.1429 39.5902 23.1429Z" fill="white"/>
</svg>
