<svg width="128" height="128" viewBox="0 0 128 128" fill="none" xmlns="http://www.w3.org/2000/svg">
<path d="M16.3038 44.7724C16.3125 43.0891 17.277 41.4233 19.1707 40.7657L34.5049 35.4965C36.8721 34.6812 39.4585 34.7338 41.7906 35.6368L96.8675 56.9153C98.7087 57.6255 99.5767 59.4053 99.4013 61.0886H99.4276V104.856H99.4101C99.5416 106.328 98.8753 107.872 97.3673 108.704L95.4823 109.748C85.8732 115.07 74.3791 115.762 64.2001 111.633L18.9691 93.2913C17.4085 92.6601 16.5493 91.3449 16.3564 89.9422L16.3125 89.9246V44.7637L16.3038 44.7724Z" fill="#EBECEF"/>
<path fill-rule="evenodd" clip-rule="evenodd" d="M41.8988 35.357C39.5009 34.4285 36.8416 34.3744 34.4073 35.2129L19.0733 40.482C17.0472 41.1855 16.0132 42.9738 16.0038 44.7709L16 45.5005L16.0126 45.488V90.1278L16.0865 90.1573C16.3381 91.5908 17.2522 92.9204 18.8566 93.5694L64.0875 111.911C74.3504 116.074 85.9393 115.376 95.6277 110.01L97.5124 108.967C99.0224 108.133 99.7473 106.634 99.7259 105.156H99.7277V60.7886H99.7216C99.77 59.0873 98.8362 57.3532 96.9757 56.6355C96.9757 56.6355 96.9756 56.6355 96.9757 56.6355L41.8988 35.357ZM99.1277 61.3886H99.0685L99.103 61.0575C99.2659 59.4935 98.4604 57.8512 96.7596 57.1952L41.6826 35.9167C39.4162 35.0391 36.9026 34.988 34.6027 35.7802L19.2692 41.0491C17.6011 41.6283 16.7094 43.0435 16.6126 44.5249V89.7215L16.6299 89.7284L16.6536 89.9013C16.8333 91.2077 17.6297 92.4259 19.0816 93.0132L64.3129 111.355C74.4079 115.45 85.8072 114.763 95.337 109.485L97.222 108.442C98.6166 107.672 99.2332 106.248 99.1113 104.882L99.0821 104.556H99.1277V61.3886Z" fill="black"/>
<path d="M19.1809 40.7745L30.7012 36.8117V17.3743C30.7012 8.05456 40.1876 1.73326 48.7884 5.31913L71.6889 14.8668C79.6672 18.1897 84.8576 25.9839 84.8576 34.6286V52.2774L96.8601 56.9154C100.025 58.1428 100.332 62.509 97.3599 64.1485L95.4749 65.1918C85.8658 70.5136 74.3717 71.2062 64.1928 67.0768L18.9617 48.7354C15.3144 47.2537 15.4547 42.0458 19.1809 40.7658V40.7745ZM71.8906 47.2712V36.2681C71.8906 31.3583 68.9096 26.9396 64.3506 25.1159L46.4388 17.9091C45.185 17.4006 43.8173 18.33 43.8173 19.6802V36.4259L71.8906 47.2712Z" fill="white"/>
<path d="M34.4156 69.3299L36.625 70.233V77.9746C36.625 79.0442 37.2562 80.0174 38.2382 80.447L53.888 87.347V89.004C53.888 90.9504 51.8803 92.2567 50.1005 91.4764L32.3114 83.6383C31.3294 83.2087 30.6982 82.2356 30.6982 81.1659V71.8374C30.6982 69.9173 32.6446 68.611 34.4156 69.3387V69.3299Z" fill="#B1B4BC"/>
<path d="M36.625 77.9746V70.233L52.2047 76.5893C53.2217 77.0014 53.888 77.9921 53.888 79.088V87.347L38.2382 80.447C37.2562 80.0174 36.625 79.0442 36.625 77.9746Z" fill="#EBECEF"/>
<path d="M30.4023 71.837C30.4026 69.7047 32.5643 68.2522 34.5332 69.0606L52.3223 76.3204C53.4495 76.7775 54.1888 77.8738 54.1924 79.088V89.004C54.1924 91.1675 51.9607 92.618 49.9834 91.7511L32.1953 83.9132C31.1037 83.4354 30.4024 82.3538 30.4023 81.1661V71.837ZM34.3057 69.6163C32.7329 68.9701 31.0022 70.1298 31.002 71.837V81.1661C31.002 82.1173 31.5647 82.9819 32.4365 83.3634L50.2256 91.2022C51.8076 91.8953 53.5918 90.733 53.5918 89.004V87.4308L37.6729 80.3751C36.8415 80.0064 36.3058 79.1821 36.3057 78.2726V70.4317L34.3057 69.6163ZM36.9053 78.2726C36.9054 78.9447 37.3016 79.5537 37.916 79.8263L53.5918 86.7745V79.0968C53.5918 78.123 52.9992 77.2423 52.0957 76.8761L36.9053 70.6768V78.2726Z" fill="black"/>
<path fill-rule="evenodd" clip-rule="evenodd" d="M43.5164 35.9884V43.7029C43.5164 43.9978 43.3308 44.3153 42.93 44.6459C42.535 44.9718 41.9776 45.2703 41.3493 45.5285C40.1002 46.0418 38.643 46.3668 37.8205 46.4452H36.8115L36.798 46.4464C35.9002 46.5277 34.424 46.2059 33.164 45.6124C32.5379 45.3175 31.986 44.9649 31.5952 44.5807C31.2022 44.1944 31.0004 43.8054 31.0004 43.4311V36.3912L19.0825 40.4908C19.0826 40.4908 19.0825 40.4908 19.0825 40.4908C15.094 41.8611 14.944 47.4361 18.8479 49.0221L64.0791 67.3635C64.0791 67.3636 64.0791 67.3635 64.0791 67.3635C74.342 71.527 85.931 70.8287 95.6193 65.463C95.6193 65.463 95.6193 65.463 95.6193 65.463L97.5039 64.4199C100.701 62.6563 100.368 57.9631 96.9677 56.6444L84.5567 51.8486V59.8524C84.5567 60.1659 84.3799 60.504 84.0191 60.8542C83.6617 61.201 83.1564 61.5266 82.5829 61.8105C81.4368 62.3779 80.089 62.7446 79.2771 62.7964H78.2522L78.243 62.7969C77.3599 62.8508 75.8088 62.6134 74.4781 62.1274C73.8144 61.8851 73.2271 61.5884 72.8114 61.2518C72.3927 60.9127 72.1897 60.5687 72.1897 60.2294V47.0655L43.5164 35.9884ZM71.5897 47.4769V60.2294C71.5897 60.8283 71.9497 61.326 72.4338 61.7181C72.9211 62.1127 73.5765 62.437 74.2723 62.691C75.6562 63.1964 77.285 63.4543 78.2703 63.3964H79.2956L79.3048 63.3958C80.2123 63.3403 81.6439 62.9448 82.8491 62.3482C83.4533 62.0491 84.0184 61.6909 84.4369 61.2848C84.852 60.882 85.1567 60.3981 85.1567 59.8524V52.7237L96.7508 57.2038C99.6805 58.34 99.9613 62.3791 97.2141 63.8945L95.3287 64.9381C85.7989 70.216 74.3997 70.9029 64.3047 66.8076L19.0737 48.4662C15.6832 47.0888 15.8138 42.2481 19.2775 41.0583L30.4004 37.2321V43.4311C30.4004 44.0299 30.7219 44.5637 31.1746 45.0086C31.6294 45.4558 32.2453 45.8429 32.9083 46.1552C34.2203 46.7732 35.7983 47.1349 36.8383 47.0452H37.8485L37.8623 47.0439C38.7433 46.9622 40.2678 46.6216 41.5774 46.0835C42.2319 45.8145 42.8511 45.4888 43.3119 45.1087C43.767 44.7332 44.1164 44.2628 44.1164 43.7029V36.8634L71.5897 47.4769Z" fill="black"/>
<path fill-rule="evenodd" clip-rule="evenodd" d="M44.1164 19.6802C44.1164 18.5412 45.2701 17.7593 46.3251 18.1871L46.3259 18.1874L64.2377 25.3943L64.2382 25.3945C68.683 27.1724 71.5896 31.4806 71.5896 36.2681V47.2712H72.1896V36.2681C72.1896 31.2361 69.1344 26.7067 64.4611 24.8374L46.5506 17.6311C46.5504 17.631 46.5502 17.631 46.55 17.6309C45.0976 17.0423 43.5164 18.119 43.5164 19.6802V36.4259H44.1164V19.6802Z" fill="black"/>
<path fill-rule="evenodd" clip-rule="evenodd" d="M48.903 5.04223C40.1046 1.37398 30.4004 7.84044 30.4004 17.3743V36.8117H31.0004V17.3743C31.0004 8.26869 40.2689 2.09254 48.6721 5.59603L71.5726 15.1437C79.4389 18.42 84.5567 26.1049 84.5567 34.6286V52.2774H85.1567V34.6286C85.1567 25.863 79.8937 17.9595 71.8035 14.5899C71.8035 14.59 71.8034 14.5899 71.8035 14.5899L48.903 5.04223Z" fill="black"/>
<path d="M67.0019 98.8399C67.2897 100.814 67.8286 104.266 70.084 107.965C71.6808 110.581 73.5071 112.291 74.3038 112.99C75.2403 113.811 76.1052 114.428 76.7722 114.863C79.9607 116.389 83.1493 117.916 86.3412 119.443C81.9301 116.895 79.7146 113.294 78.8397 111.834C76.5792 108.058 76.0453 104.627 75.7576 102.641C74.8594 96.4464 76.3131 91.6129 76.9834 89.4722C77.8084 86.8358 79.4401 82.8323 82.7268 78.8254C83.9626 77.3184 86.4709 74.3195 90.7805 71.8561C93.1607 70.4955 97.3356 68.1819 103.072 68.3532C105.85 68.4364 108.174 69.0784 109.86 69.7271C107.177 68.3948 104.494 67.0608 101.813 65.7285C100.431 65.2262 98.5249 64.6823 96.2096 64.4511C93.2555 64.1534 90.9518 64.4927 89.9938 64.6607C86.4326 65.2861 83.951 66.6317 82.4457 67.46C81.5991 67.9291 78.3556 69.7803 75.0906 73.3448C74.2623 74.2496 72.406 76.387 70.6795 79.5606C68.464 83.634 67.5708 87.3764 67.1766 89.8048C66.8938 91.548 66.4031 94.7332 67.0019 98.8399Z" fill="#FF535E"/>
<path d="M86.3395 119.776C86.4592 119.776 86.574 119.711 86.6339 119.598C86.717 119.44 86.6605 119.243 86.5058 119.155C82.0764 116.595 79.8526 112.883 79.1224 111.662C76.8487 107.866 76.3513 104.435 76.0835 102.592C75.177 96.3498 76.7173 91.4247 77.2977 89.5701C78.507 85.7013 80.4198 82.1568 82.9813 79.0364C84.0624 77.7174 86.5923 74.6303 90.9435 72.1453C93.164 70.8762 97.299 68.5144 103.061 68.6857C105.336 68.7539 107.583 69.2096 109.739 70.0363C109.905 70.0995 110.091 70.0213 110.163 69.86C110.234 69.697 110.165 69.5073 110.007 69.4275C108.222 68.541 106.437 67.6544 104.652 66.7679L101.96 65.4306C101.948 65.4256 101.936 65.4206 101.925 65.4156C100.093 64.7503 98.1805 64.3145 96.2411 64.1199C94.1171 63.9053 91.9365 63.9802 89.9339 64.3328C86.258 64.9782 83.6715 66.4036 82.2827 67.1687C80.7757 68.0037 77.8051 69.8866 74.8427 73.12C73.1644 74.953 71.6226 77.1253 70.3851 79.4023C68.6269 82.6325 67.436 86.1154 66.8455 89.7514C66.5877 91.3415 66.0505 94.6482 66.6692 98.888C66.9453 100.782 67.461 104.309 69.7979 108.138C71.2533 110.523 72.9299 112.228 74.0826 113.239C74.8677 113.929 75.711 114.568 76.5892 115.142C76.6008 115.15 76.6141 115.157 76.6274 115.163C78.7515 116.181 80.8755 117.198 82.9995 118.214L86.1964 119.744C86.243 119.766 86.2912 119.777 86.3395 119.777V119.776ZM102.483 68.0104C96.8349 68.0104 92.6584 70.3989 90.6142 71.5665C86.1565 74.113 83.5717 77.2667 82.4673 78.6139C79.8509 81.8008 77.8982 85.4202 76.664 89.3722C76.0719 91.265 74.4984 96.2949 75.4265 102.689C75.701 104.578 76.2116 108.094 78.5535 112.005C79.1107 112.936 80.5146 115.281 83.0711 117.51C81.0252 116.531 78.981 115.553 76.9351 114.573C76.0902 114.021 75.2785 113.404 74.5217 112.74C73.4056 111.759 71.7772 110.104 70.3668 107.792C68.1013 104.079 67.599 100.641 67.3296 98.7931C66.7258 94.6548 67.2514 91.4164 67.5042 89.8595C68.083 86.2967 69.249 82.8853 70.9722 79.7217C72.1847 77.4912 73.695 75.3638 75.3367 73.5708C78.2342 70.4072 81.1367 68.5676 82.607 67.7526C83.9609 67.0057 86.4842 65.6152 90.052 64.9898C91.4076 64.7503 93.5698 64.5208 96.1779 64.7836C98.0574 64.9715 99.9087 65.394 101.683 66.0377L104.36 67.3667C105.052 67.711 105.744 68.0553 106.436 68.3979C105.331 68.1817 104.212 68.0569 103.086 68.0237C102.884 68.017 102.685 68.0154 102.487 68.0154L102.483 68.0104Z" fill="black"/>
<path d="M85.6285 94.3791C89.2212 97.7822 92.8156 101.187 96.4084 104.592C99.3275 105.977 102.245 107.364 105.164 108.75C98.9482 102.862 92.7308 96.9705 86.5134 91.0824C86.2273 91.8442 85.8597 92.9719 85.6285 94.3791Z" fill="#FF444F"/>
<path d="M105.162 109.082C105.268 109.082 105.373 109.031 105.436 108.938C105.529 108.803 105.509 108.62 105.391 108.509L86.7406 90.8409C86.6591 90.7644 86.546 90.7328 86.4379 90.7577C86.3298 90.7827 86.2399 90.8609 86.2017 90.964C85.7908 92.0535 85.4881 93.1845 85.2985 94.3239C85.2802 94.4336 85.3185 94.5434 85.3983 94.6199C88.991 98.0231 92.5854 101.428 96.1782 104.833C96.2031 104.856 96.2331 104.876 96.2647 104.891L105.02 109.049C105.067 109.071 105.115 109.081 105.163 109.081L105.162 109.082ZM86.6524 91.6726L103.412 107.55L96.5957 104.314C93.0578 100.962 89.52 97.6106 85.9838 94.259C86.1385 93.3858 86.3614 92.5175 86.6524 91.6726Z" fill="black"/>
<path d="M88.6762 106.936C91.617 110.224 95.4359 110.829 96.226 110.939C100.97 111.596 104.423 109.281 105.175 108.749C102.255 107.363 99.338 105.976 96.4189 104.59C95.87 104.923 95.1532 105.312 94.2832 105.676C93.924 105.824 92.896 106.239 91.4806 106.551C90.7471 106.713 89.8006 106.874 88.6746 106.934L88.6762 106.936Z" fill="#FF444F"/>
<path d="M97.9178 111.39C101.579 111.39 104.28 109.79 105.364 109.022C105.461 108.953 105.514 108.839 105.504 108.722C105.494 108.604 105.423 108.501 105.316 108.451L96.5605 104.293C96.4591 104.245 96.341 104.251 96.2462 104.309C95.5825 104.712 94.8789 105.07 94.1537 105.374C93.3088 105.723 92.359 106.021 91.4093 106.231C90.5078 106.43 89.583 106.557 88.6565 106.606C88.5284 106.613 88.417 106.693 88.3671 106.811C88.3189 106.929 88.3405 107.066 88.427 107.16C91.2247 110.287 94.7808 111.077 96.1796 111.272C96.7801 111.355 97.3622 111.392 97.9195 111.392L97.9178 111.39ZM104.499 108.799C103.049 109.713 100.083 111.139 96.2678 110.61C95.0203 110.437 91.9615 109.763 89.3967 107.215C90.1219 107.147 90.8438 107.034 91.5507 106.878C92.5387 106.66 93.5267 106.35 94.4082 105.986C95.1085 105.693 95.7888 105.351 96.4341 104.97L104.499 108.8V108.799Z" fill="black"/>
<path d="M104.438 84.8045C104.646 85.5463 105.181 87.6621 104.925 90.4165C104.872 91.002 104.787 91.5492 104.687 92.0515C107.277 94.5199 109.865 96.9849 112.455 99.4532C113.007 98.1692 113.742 96.0202 113.785 93.289C113.812 91.7488 113.82 88.7914 111.999 85.7243C111.347 84.6265 109.411 81.7407 105.695 80.3302C104.34 79.8146 103.014 79.5984 101.77 79.5751C102.575 80.5963 103.746 82.3528 104.438 84.8045Z" fill="#FF444F"/>
<path d="M112.452 99.7855C112.473 99.7855 112.497 99.7839 112.518 99.7789C112.625 99.7573 112.715 99.6841 112.758 99.5843C113.624 97.57 114.082 95.4543 114.115 93.2937C114.14 91.825 114.192 88.7695 112.282 85.5543C111.402 84.0706 109.391 81.3778 105.81 80.0188C104.525 79.5298 103.166 79.2687 101.773 79.2421C101.637 79.2404 101.526 79.3119 101.469 79.4267C101.413 79.5415 101.426 79.6795 101.506 79.781C102.71 81.3079 103.588 83.0294 104.115 84.8956C104.455 86.1015 104.811 88.0326 104.591 90.3862C104.541 90.9201 104.463 91.459 104.358 91.988C104.337 92.0994 104.372 92.2158 104.455 92.294C107.031 94.7491 109.604 97.2008 112.181 99.6558L112.222 99.6957C112.286 99.7556 112.367 99.7872 112.452 99.7872V99.7855ZM102.459 79.9423C103.532 80.0271 104.576 80.2617 105.574 80.6409C108.966 81.9283 110.873 84.4848 111.71 85.8936C113.523 88.9474 113.473 91.8765 113.45 93.2837C113.42 95.1981 113.044 97.0777 112.33 98.8774C109.902 96.5637 107.475 94.2517 105.045 91.9364C105.138 91.4441 105.208 90.9434 105.253 90.4461C105.483 87.9911 105.108 85.9735 104.754 84.7143C104.268 82.9928 103.497 81.3911 102.459 79.9423Z" fill="black"/>
<path d="M76.9799 89.4725C77.8049 86.8362 79.4366 82.8309 82.7233 78.8257C83.9591 77.3204 86.4673 74.3198 90.7786 71.8564C93.1572 70.4975 97.332 68.1822 103.072 68.3535C107.495 68.4866 110.767 70.0335 112.142 70.7703C113.074 71.2676 116.176 73.0208 118.902 76.5836C121.693 80.2312 122.554 83.7773 123 85.6885C124.005 90.0114 123.639 93.4628 123.421 95.3539C123.22 97.1087 122.641 100.805 120.655 105.054C118.049 110.63 114.511 113.97 113.511 114.878C111.397 116.799 107.455 120.38 101.113 121.603C99.1168 121.987 93.0324 123.068 86.8233 119.711C82.0895 117.153 79.7443 113.344 78.8378 111.831C76.5773 108.057 76.0451 104.624 75.7557 102.638C74.8558 96.4451 76.3112 91.6098 76.9815 89.4692L76.9799 89.4725ZM113.789 93.2898C113.814 91.7496 113.822 88.7922 112.002 85.7251C111.35 84.6273 109.413 81.7415 105.698 80.331C99.8403 78.1071 94.5577 81.4487 93.9655 81.8363C100.13 87.7077 106.294 93.5809 112.456 99.4523C113.009 98.1699 113.744 96.0209 113.787 93.2881L113.789 93.2898ZM85.5076 98.9633C85.7022 100.736 86.0432 103.853 88.475 106.713C91.4406 110.197 95.4143 110.829 96.2243 110.941C100.968 111.598 104.421 109.282 105.173 108.752C98.9571 102.862 92.7397 96.9723 86.5239 91.0826C85.9684 92.5546 85.1184 95.3972 85.5076 98.9633Z" fill="#FF7E88"/>
<path d="M96.369 122.407C97.9242 122.407 99.5259 122.249 101.174 121.931C107.608 120.691 111.592 117.071 113.732 115.127C115.407 113.605 118.574 110.292 120.954 105.197C122.401 102.102 123.368 98.7101 123.75 95.3934C123.948 93.6702 124.361 90.0825 123.323 85.6149C122.912 83.8451 122.055 80.1625 119.166 76.3818C116.653 73.0952 113.785 71.2722 112.3 70.4771C110.331 69.4242 107.134 68.1435 103.082 68.0221C97.1241 67.8425 92.8927 70.2659 90.6139 71.5683C86.1629 74.1114 83.5732 77.2684 82.4671 78.6157C79.854 81.8009 77.8996 85.4203 76.6638 89.3739C76.0717 91.2668 74.4982 96.2949 75.4263 102.689C75.7007 104.578 76.2114 108.098 78.5516 112.005C79.3434 113.327 81.7535 117.352 86.6636 120.007C89.6209 121.605 92.871 122.409 96.3673 122.409L96.369 122.407ZM102.463 68.6774C102.661 68.6774 102.861 68.6808 103.064 68.6857C106.986 68.8038 110.081 70.043 111.987 71.0626C113.426 71.8311 116.202 73.5975 118.639 76.7844C121.443 80.4503 122.277 84.038 122.677 85.7629C123.689 90.1191 123.286 93.6287 123.092 95.3152C122.717 98.562 121.771 101.882 120.354 104.914C118.022 109.902 114.925 113.144 113.286 114.633C111.194 116.534 107.3 120.072 101.05 121.276C95.8484 122.279 91.1162 121.654 86.9813 119.418C82.2309 116.85 79.8923 112.943 79.1238 111.661C76.8517 107.867 76.3528 104.435 76.085 102.591C75.1785 96.3465 76.7187 91.4231 77.2992 89.5702C78.5117 85.698 80.4229 82.1535 82.9827 79.0348C84.0655 77.7158 86.6004 74.6271 90.9449 72.1438C93.0873 70.9196 97.0127 68.6758 102.463 68.6758V68.6774ZM97.9192 111.389C101.575 111.389 104.28 109.789 105.367 109.023C105.449 108.964 105.501 108.875 105.507 108.775C105.514 108.675 105.477 108.578 105.404 108.509L86.7551 90.8393C86.6736 90.7628 86.5605 90.7312 86.4523 90.7561C86.3442 90.7811 86.2544 90.8593 86.2162 90.9624C85.2448 93.5322 84.8872 96.3116 85.1816 98.9961C85.3729 100.741 85.7271 103.988 88.2271 106.923C91.0497 110.238 94.7306 111.065 96.1827 111.266C96.7831 111.35 97.362 111.386 97.9208 111.386L97.9192 111.389ZM104.646 108.708C103.252 109.615 100.211 111.157 96.2725 110.611C94.8953 110.42 91.4057 109.638 88.7311 106.496C86.3642 103.715 86.0365 100.718 85.8402 98.9279L85.5093 98.9629L85.8402 98.9263C85.5758 96.5095 85.8619 94.0129 86.6652 91.6743L104.646 108.708ZM112.46 99.7862C112.481 99.7862 112.505 99.7845 112.526 99.7796C112.633 99.7579 112.723 99.6847 112.766 99.5849C113.632 97.5723 114.09 95.455 114.123 93.2943C114.146 91.824 114.196 88.7652 112.29 85.555C111.41 84.0713 109.398 81.3801 105.818 80.0195C99.9767 77.8023 94.7705 80.9127 93.7859 81.5581C93.701 81.613 93.6461 81.7044 93.6378 81.8059C93.6295 81.9074 93.6661 82.0072 93.7393 82.077L112.23 99.6931C112.293 99.7529 112.375 99.7845 112.46 99.7845V99.7862ZM113.458 93.2844C113.428 95.1988 113.05 97.0783 112.338 98.878L94.5111 81.894C95.8916 81.0824 100.557 78.7338 105.584 80.6432C108.975 81.9306 110.883 84.4871 111.72 85.896C113.529 88.9448 113.481 91.8772 113.459 93.286L113.458 93.2844Z" fill="black"/>
</svg>
