<svg width="24" height="24" viewBox="0 0 24 24" fill="#fffff" xmlns="http://www.w3.org/2000/svg">
<path d="M7 6C6.4375 6 6 6.46875 6 7V17C6 17.5625 6.4375 18 7 18H17C17.5312 18 18 17.5625 18 17V7C18 6.46875 17.5312 6 17 6H7ZM5 7C5 5.90625 5.875 5 7 5H17C18.0938 5 19 5.90625 19 7V17C19 18.125 18.0938 19 17 19H7C5.875 19 5 18.125 5 17V7ZM8.25 9C8.25 8.59375 8.5625 8.25 9 8.25C9.40625 8.25 9.75 8.59375 9.75 9C9.75 9.4375 9.40625 9.75 9 9.75C8.5625 9.75 8.25 9.4375 8.25 9ZM11 9C11 8.75 11.2188 8.5 11.5 8.5H15.5C15.75 8.5 16 8.75 16 9C16 9.28125 15.75 9.5 15.5 9.5H11.5C11.2188 9.5 11 9.28125 11 9ZM11 12C11 11.75 11.2188 11.5 11.5 11.5H15.5C15.75 11.5 16 11.75 16 12C16 12.2812 15.75 12.5 15.5 12.5H11.5C11.2188 12.5 11 12.2812 11 12ZM11 15C11 14.75 11.2188 14.5 11.5 14.5H15.5C15.75 14.5 16 14.75 16 15C16 15.2812 15.75 15.5 15.5 15.5H11.5C11.2188 15.5 11 15.2812 11 15ZM9 12.75C8.5625 12.75 8.25 12.4375 8.25 12C8.25 11.5938 8.5625 11.25 9 11.25C9.40625 11.25 9.75 11.5938 9.75 12C9.75 12.4375 9.40625 12.75 9 12.75ZM8.25 15C8.25 14.5938 8.5625 14.25 9 14.25C9.40625 14.25 9.75 14.5938 9.75 15C9.75 15.4375 9.40625 15.75 9 15.75C8.5625 15.75 8.25 15.4375 8.25 15Z" />
</svg>
