<svg width="96" height="18" viewBox="0 0 96 18" fill="none" xmlns="http://www.w3.org/2000/svg">
<path fill-rule="evenodd" clip-rule="evenodd" d="M10.5901 0.557447L9.68513 5.72648H6.54365C3.61284 5.72648 0.819314 8.11797 0.301552 11.0697L0.0823991 12.3261C-0.432951 15.2779 1.52251 17.6694 4.45332 17.6694H7.07345C9.20954 17.6694 11.2445 15.9279 11.6202 13.7766L14.0332 0L10.5901 0.557447ZM8.36107 13.289C8.24547 13.9536 7.65142 14.4945 6.99158 14.4945H5.39975C4.08245 14.4945 3.20105 13.4175 3.43223 12.0884L3.5695 11.305C3.80309 9.97828 5.06018 8.89895 6.37748 8.89895H9.12969L8.36107 13.289Z" fill="white"/>
<path d="M34.7836 17.6703H38.0443L40.1057 5.89225H36.845L34.7836 17.6703Z" fill="white"/>
<path d="M34.8922 7.42768L34.8927 7.425C34.9743 6.95931 35.056 6.49363 35.1374 6.02795C31.7916 5.15968 29.1855 6.05794 28.1243 6.50054C28.1243 6.50054 26.6106 15.1426 26.1675 17.6731H29.4303C29.9599 14.6488 30.4894 11.6237 31.0182 8.59941C31.5079 8.50107 33.1016 8.3471 34.6464 8.83059C34.7282 8.36295 34.8102 7.89532 34.8922 7.42768Z" fill="white"/>
<path fill-rule="evenodd" clip-rule="evenodd" d="M21.9134 5.72529H19.3776C16.9043 5.72529 14.5468 7.74325 14.1108 10.2342L13.5979 13.1617C13.162 15.6526 14.8117 17.6706 17.2849 17.6706H22.6841L23.238 14.5054H18.1638C17.3403 14.5054 16.7887 13.8335 16.9357 13.0016L16.9525 12.9022H25.1332L25.6004 10.2342C26.0362 7.74325 24.3867 5.72529 21.9134 5.72529ZM22.3276 9.98194L22.3084 10.1517H17.4438L17.4703 10.0013C17.6171 9.17184 18.3686 8.44179 19.1945 8.44179H21.0946C21.911 8.44179 22.4626 9.15972 22.3276 9.98194Z" fill="white"/>
<path d="M45.7729 13.6609C47.2534 10.9783 48.8856 7.45872 49.5657 5.89225H52.8313C51.7197 8.86867 49.1724 13.9318 46.7047 17.6703H43.4417C42.309 14.1121 41.5776 9.1545 41.438 5.89225H44.7012C44.7601 6.95638 45.2331 10.9034 45.7729 13.6609Z" fill="white"/>
<path d="M61.7668 0.383189C64.1525 0.383189 65.9826 0.843989 67.2572 1.76559C68.5481 2.67073 69.1935 4.02845 69.1935 5.83873C69.1935 6.82616 69.0138 7.67371 68.6543 8.38136C68.3111 9.07256 67.8046 9.64033 67.1346 10.0847C66.481 10.5126 65.6803 10.8252 64.7326 11.0227C63.7849 11.2202 62.7146 11.319 61.5217 11.319H59.6344V17.6632H57.2569V0.802847C57.9268 0.638276 58.6703 0.531304 59.4873 0.481932C60.3207 0.416104 61.0805 0.383189 61.7668 0.383189ZM61.9629 2.48148C60.9498 2.48148 60.1736 2.50616 59.6344 2.55553V9.27005H61.4237C62.2407 9.27005 62.976 9.22068 63.6296 9.12193C64.2832 9.00673 64.8306 8.8257 65.2718 8.57885C65.7294 8.31553 66.0807 7.96171 66.3258 7.51736C66.5709 7.07302 66.6935 6.50525 66.6935 5.81405C66.6935 5.15576 66.5627 4.61268 66.3013 4.18479C66.0562 3.7569 65.713 3.41953 65.2718 3.17268C64.847 2.90936 64.3486 2.72833 63.7767 2.62959C63.2048 2.53085 62.6002 2.48148 61.9629 2.48148Z" fill="white"/>
<path d="M80.5272 4.92536C80.5272 5.51782 80.4047 6.09382 80.1596 6.65336C79.9308 7.19645 79.6203 7.73953 79.2281 8.28262C78.836 8.80925 78.3948 9.33588 77.9046 9.8625C77.4144 10.3727 76.9241 10.8746 76.4339 11.3683C76.1561 11.6481 75.8293 11.9772 75.4535 12.3558C75.094 12.7343 74.7509 13.1292 74.4241 13.5407C74.0973 13.9521 73.8195 14.3471 73.5907 14.7256C73.3783 15.1041 73.2721 15.4332 73.2721 15.713H81.091V17.6632H70.7965C70.7802 17.5644 70.772 17.4657 70.772 17.367C70.772 17.2682 70.772 17.1777 70.772 17.0954C70.772 16.3219 70.8945 15.606 71.1396 14.9478C71.4011 14.273 71.7361 13.6394 72.1446 13.047C72.5531 12.4545 73.0106 11.895 73.5172 11.3683C74.0237 10.8417 74.5221 10.3315 75.0123 9.83782C75.4208 9.44285 75.8048 9.05611 76.1643 8.67759C76.5401 8.28262 76.867 7.89588 77.1447 7.51736C77.4389 7.12239 77.6676 6.71919 77.831 6.30776C78.0108 5.89633 78.1007 5.46022 78.1007 4.99942C78.1007 4.5057 78.019 4.08605 77.8556 3.74045C77.7085 3.39485 77.5042 3.10685 77.2428 2.87645C76.9813 2.64605 76.6709 2.48148 76.3114 2.38273C75.9682 2.26753 75.6006 2.20993 75.2084 2.20993C74.7345 2.20993 74.3015 2.27576 73.9093 2.40742C73.5172 2.53908 73.1658 2.69542 72.8554 2.87645C72.5449 3.04102 72.2835 3.22205 72.071 3.41953C71.8586 3.60056 71.6952 3.74045 71.5808 3.83919L70.4533 2.20993C70.6004 2.04536 70.821 1.84788 71.1151 1.61748C71.4093 1.37062 71.7606 1.14022 72.1691 0.926276C72.5776 0.712332 73.0351 0.531304 73.5417 0.383189C74.0482 0.235075 74.5956 0.161018 75.1839 0.161018C76.965 0.161018 78.2967 0.580675 79.1791 1.41999C80.0779 2.24285 80.5272 3.4113 80.5272 4.92536Z" fill="white"/>
<path d="M88.5533 0.383189C90.939 0.383189 92.7691 0.843989 94.0437 1.76559C95.3346 2.67073 95.98 4.02845 95.98 5.83873C95.98 6.82616 95.8003 7.67371 95.4408 8.38136C95.0976 9.07256 94.5911 9.64033 93.9211 10.0847C93.2675 10.5126 92.4668 10.8252 91.5191 11.0227C90.5713 11.2202 89.501 11.319 88.3082 11.319H86.4209V17.6632H84.0433V0.802847C84.7133 0.638276 85.4568 0.531304 86.2738 0.481932C87.1072 0.416104 87.867 0.383189 88.5533 0.383189ZM88.7494 2.48148C87.7363 2.48148 86.9601 2.50616 86.4209 2.55553V9.27005H88.2101C89.0272 9.27005 89.7625 9.22068 90.4161 9.12193C91.0697 9.00673 91.6171 8.8257 92.0583 8.57885C92.5158 8.31553 92.8672 7.96171 93.1123 7.51736C93.3574 7.07302 93.4799 6.50525 93.4799 5.81405C93.4799 5.15576 93.3492 4.61268 93.0878 4.18479C92.8427 3.7569 92.4995 3.41953 92.0583 3.17268C91.6335 2.90936 91.1351 2.72833 90.5632 2.62959C89.9913 2.53085 89.3867 2.48148 88.7494 2.48148Z" fill="white"/>
</svg>
