<svg width="24" height="24" viewBox="0 0 24 24" fill="none" xmlns="http://www.w3.org/2000/svg">
<path d="M5.5 4H8.5C8.75 4 9 4.25 9 4.5C9 4.78125 8.75 5 8.5 5H5.5C5.21875 5 5 5.25 5 5.5V8.5C5 8.78125 4.75 9 4.5 9C4.21875 9 4 8.78125 4 8.5V5.5C4 4.6875 4.65625 4 5.5 4ZM18.5 4C19.3125 4 20 4.6875 20 5.5V8.5C20 8.78125 19.75 9 19.5 9C19.2188 9 19 8.78125 19 8.5V5.5C19 5.25 18.75 5 18.5 5H15.5C15.2188 5 15 4.78125 15 4.5C15 4.25 15.2188 4 15.5 4H18.5ZM4 18.5V15.5C4 15.25 4.21875 15 4.5 15C4.75 15 5 15.25 5 15.5V18.5C5 18.7812 5.21875 19 5.5 19H8.5C8.75 19 9 19.25 9 19.5C9 19.7812 8.75 20 8.5 20H5.5C4.65625 20 4 19.3438 4 18.5ZM18.5 20H15.5C15.2188 20 15 19.7812 15 19.5C15 19.25 15.2188 19 15.5 19H18.5C18.75 19 19 18.7812 19 18.5V15.5C19 15.25 19.2188 15 19.5 15C19.75 15 20 15.25 20 15.5V18.5C20 19.3438 19.3125 20 18.5 20ZM11.5 10.75C11.5 11.1875 11.1562 11.5 10.75 11.5C10.3125 11.5 10 11.1875 10 10.75C10 10.3438 10.3125 10 10.75 10C11.1562 10 11.5 10.3438 11.5 10.75ZM13.25 11.5C12.8125 11.5 12.5 11.1875 12.5 10.75C12.5 10.3438 12.8125 10 13.25 10C13.6562 10 14 10.3438 14 10.75C14 11.1875 13.6562 11.5 13.25 11.5ZM12 8C10.5625 8 9.25 8.78125 8.53125 10C7.8125 11.25 7.8125 12.7812 8.53125 14C9.25 15.25 10.5625 16 12 16C13.4062 16 14.7188 15.25 15.4375 14C16.1562 12.7812 16.1562 11.25 15.4375 10C14.7188 8.78125 13.4062 8 12 8ZM12 17C10.1875 17 8.5625 16.0625 7.65625 14.5C6.75 12.9688 6.75 11.0625 7.65625 9.5C8.5625 7.96875 10.1875 7 12 7C13.7812 7 15.4062 7.96875 16.3125 9.5C17.2188 11.0625 17.2188 12.9688 16.3125 14.5C15.4062 16.0625 13.7812 17 12 17ZM10.6875 12.75C10.9375 13.2188 11.4375 13.5 12 13.5C12.5312 13.5 13.0312 13.2188 13.2812 12.75C13.4375 12.5312 13.7188 12.4375 13.9688 12.5938C14.2188 12.7188 14.2812 13.0312 14.1562 13.2812C13.7188 14 12.9062 14.5312 12 14.5312C11.0625 14.5312 10.25 14 9.8125 13.2812C9.6875 13.0312 9.75 12.7188 10 12.5938C10.25 12.4375 10.5625 12.5312 10.6875 12.75Z" fill="#181C25"/>
</svg>
