<svg width="24" height="24" viewBox="0 0 24 24" fill="none" xmlns="http://www.w3.org/2000/svg">
<path d="M15.5 10.5C15.5 8.71875 14.5312 7.09375 13 6.1875C11.4375 5.28125 9.53125 5.28125 8 6.1875C6.4375 7.09375 5.5 8.71875 5.5 10.5C5.5 12.3125 6.4375 13.9375 8 14.8438C9.53125 15.75 11.4375 15.75 13 14.8438C14.5312 13.9375 15.5 12.3125 15.5 10.5ZM14.5312 15.625C13.4062 16.5 12 17 10.5 17C6.90625 17 4 14.0938 4 10.5C4 6.9375 6.90625 4 10.5 4C14.0625 4 17 6.9375 17 10.5C17 12.0312 16.4688 13.4375 15.5938 14.5625L19.7812 18.7188C20.0625 19.0312 20.0625 19.5 19.7812 19.7812C19.4688 20.0938 19 20.0938 18.7188 19.7812L14.5312 15.625Z" fill="white"/>
</svg>
