<svg width="20" height="18" viewBox="0 0 20 18" fill="none" xmlns="http://www.w3.org/2000/svg">
<path d="M10.0002 8.60547H0L5.0001 17.2102L10.0002 8.60547Z" fill="#414652"/>
<path d="M14.9999 17.2102L10.0001 8.60547L5 17.2102H14.9999Z" fill="#5C616D"/>
<path d="M19.9999 8.60547H10L14.9998 17.2102L19.9999 8.60547Z" fill="#5C616D"/>
<path d="M14.9998 0L10 8.60473H19.9999L14.9998 0Z" fill="#B1B4BC"/>
<path d="M5 0L10.0001 8.60473L14.9999 0H5Z" fill="#5C616D"/>
<path d="M0 8.60473H10.0002L5.0001 0L0 8.60473Z" fill="#5C616D"/>
<path d="M9.99901 8.60547H1.75781L5.87841 15.6966L9.99901 8.60547Z" fill="#EBECEF"/>
<path d="M14.1201 15.6966L9.99951 8.60547L5.87891 15.6966H14.1201Z" fill="#B1B4BC"/>
<path d="M18.2412 8.60547H10L14.1206 15.6966L18.2412 8.60547Z" fill="#9498A2"/>
<path d="M14.1206 1.51367L10 8.60485H18.2412L14.1206 1.51367Z" fill="#CED0D6"/>
<path d="M5.87891 1.51367L9.99951 8.60485L14.1201 1.51367H5.87891Z" fill="#B1B4BC"/>
<path d="M1.75781 8.60485H9.99901L5.87841 1.51367L1.75781 8.60485Z" fill="#9498A2"/>
</svg>
