<svg width="16" height="16" viewBox="0 0 16 16" fill="none" xmlns="http://www.w3.org/2000/svg">
<path d="M8.54688 3.60156L9.81641 6.19922L12.6094 6.60938C12.8438 6.64844 13.0391 6.80469 13.1172 7.03906C13.1953 7.25391 13.1367 7.50781 12.9609 7.66406L10.9297 9.67578L11.418 12.5273C11.457 12.7617 11.3594 12.9961 11.1641 13.1328C10.9688 13.2891 10.7148 13.2891 10.5 13.1914L8 11.8438L5.48047 13.1914C5.28516 13.2891 5.03125 13.2891 4.83594 13.1328C4.64062 12.9961 4.54297 12.7617 4.58203 12.5273L5.05078 9.67578L3.01953 7.66406C2.86328 7.50781 2.80469 7.25391 2.86328 7.03906C2.94141 6.80469 3.13672 6.64844 3.37109 6.60938L6.18359 6.19922L7.43359 3.60156C7.53125 3.38672 7.74609 3.25 8 3.25C8.23438 3.25 8.44922 3.38672 8.54688 3.60156Z" fill="#FF9C13"/>
</svg>
