<svg width="17" height="16" viewBox="0 0 17 16" fill="none" xmlns="http://www.w3.org/2000/svg">
<path d="M8.375 1C5.84375 1 3.5625 2.34375 2.3125 4.5C1.03125 6.6875 1.03125 9.34375 2.3125 11.5C3.5625 13.6875 5.84375 15 8.375 15C10.875 15 13.1562 13.6875 14.4062 11.5C15.6875 9.34375 15.6875 6.6875 14.4062 4.5C13.1562 2.34375 10.875 1 8.375 1ZM8.375 16C5.5 16 2.875 14.5 1.4375 12C0 9.53125 0 6.5 1.4375 4C2.875 1.53125 5.5 0 8.375 0C11.2188 0 13.8438 1.53125 15.2812 4C16.7188 6.5 16.7188 9.53125 15.2812 12C13.8438 14.5 11.2188 16 8.375 16ZM8.8125 3.53125L9.9375 5.84375L12.4688 6.21875C12.6562 6.25 12.8125 6.375 12.875 6.5625C12.9375 6.71875 12.9062 6.9375 12.75 7.0625L10.9375 8.84375L11.3438 11.375C11.375 11.5625 11.3125 11.75 11.1562 11.8438C11 11.9688 10.7812 11.9688 10.625 11.9062L8.375 10.7188L6.09375 11.9062C5.9375 11.9688 5.71875 11.9688 5.5625 11.8438C5.40625 11.75 5.34375 11.5625 5.375 11.375L5.8125 8.84375L3.96875 7.0625C3.84375 6.9375 3.78125 6.71875 3.84375 6.53125C3.90625 6.375 4.0625 6.21875 4.25 6.21875L6.78125 5.84375L7.90625 3.53125C8 3.375 8.1875 3.25 8.375 3.25C8.5625 3.25 8.71875 3.375 8.8125 3.53125ZM7.5625 6.5C7.5 6.65625 7.34375 6.75 7.1875 6.78125L5.40625 7.0625L6.6875 8.3125C6.8125 8.4375 6.875 8.59375 6.84375 8.75L6.53125 10.5312L8.125 9.6875C8.28125 9.625 8.4375 9.625 8.59375 9.6875L10.1875 10.5312L9.875 8.75C9.84375 8.59375 9.90625 8.4375 10.0312 8.3125L11.3125 7.0625L9.53125 6.78125C9.375 6.78125 9.21875 6.65625 9.15625 6.53125L8.375 4.90625L7.5625 6.5Z" fill="black" fill-opacity="0.72"/>
</svg>
