<svg width="36" height="36" viewBox="0 0 36 36" fill="none" xmlns="http://www.w3.org/2000/svg">
<g clip-path="url(#clip0_12348_22992)">
<path d="M18 36C27.9411 36 36 27.9411 36 18C36 8.05888 27.9411 0 18 0C8.05888 0 0 8.05888 0 18C0 27.9411 8.05888 36 18 36Z" fill="url(#paint0_linear_12348_22992)"/>
<path fill-rule="evenodd" clip-rule="evenodd" d="M8.14802 17.8094C13.3954 15.5232 16.8945 14.0161 18.6452 13.2878C23.644 11.2087 24.6827 10.8475 25.3597 10.8356C25.5086 10.833 25.8416 10.8699 26.0572 11.0449C26.2393 11.1926 26.2894 11.3922 26.3134 11.5323C26.3374 11.6724 26.3672 11.9915 26.3435 12.2409C26.0726 15.0871 24.9005 21.9942 24.3042 25.182C24.0519 26.5309 23.555 26.9832 23.0741 27.0274C22.0288 27.1236 21.235 26.3366 20.2226 25.673C18.6384 24.6345 17.7434 23.988 16.2056 22.9746C14.4284 21.8035 15.5805 21.1599 16.5933 20.1079C16.8584 19.8326 21.4639 15.6435 21.5531 15.2635C21.5642 15.2159 21.5746 15.0388 21.4693 14.9452C21.3641 14.8517 21.2087 14.8837 21.0966 14.9091C20.9378 14.9452 18.4069 16.618 13.5041 19.9275C12.7858 20.4208 12.1351 20.6611 11.5521 20.6485C10.9094 20.6346 9.67314 20.2851 8.75409 19.9864C7.62684 19.6199 6.73092 19.4262 6.80894 18.8039C6.84957 18.4798 7.29593 18.1483 8.14802 17.8094Z" fill="white"/>
</g>
<defs>
<linearGradient id="paint0_linear_12348_22992" x1="18" y1="0" x2="18" y2="35.733" gradientUnits="userSpaceOnUse">
<stop stop-color="#2AABEE"/>
<stop offset="1" stop-color="#229ED9"/>
</linearGradient>
<clipPath id="clip0_12348_22992">
<rect width="36" height="36" fill="white"/>
</clipPath>
</defs>
</svg>
