<svg width="24" height="24" viewBox="0 0 24 24" fill="none" xmlns="http://www.w3.org/2000/svg">
<path d="M12 15.5C12.5312 15.5 13 15.8125 13.2812 16.25C13.5625 16.7188 13.5625 17.3125 13.2812 17.75C13 18.2188 12.5312 18.5 12 18.5C11.4375 18.5 10.9688 18.2188 10.6875 17.75C10.4062 17.3125 10.4062 16.7188 10.6875 16.25C10.9688 15.8125 11.4375 15.5 12 15.5ZM12 10.5C12.5312 10.5 13 10.8125 13.2812 11.25C13.5625 11.7188 13.5625 12.3125 13.2812 12.75C13 13.2188 12.5312 13.5 12 13.5C11.4375 13.5 10.9688 13.2188 10.6875 12.75C10.4062 12.3125 10.4062 11.7188 10.6875 11.25C10.9688 10.8125 11.4375 10.5 12 10.5ZM13.5 7C13.5 7.5625 13.1875 8.03125 12.75 8.3125C12.2812 8.59375 11.6875 8.59375 11.25 8.3125C10.7812 8.03125 10.5 7.5625 10.5 7C10.5 6.46875 10.7812 6 11.25 5.71875C11.6875 5.4375 12.2812 5.4375 12.75 5.71875C13.1875 6 13.5 6.46875 13.5 7Z" fill="#181C25"/>
</svg>
