<svg width="36" height="36" viewBox="0 0 36 36" fill="none" xmlns="http://www.w3.org/2000/svg">
<g clip-path="url(#clip0_11998_26798)">
<path d="M0.627319 35.5267L3.08518 26.5632C1.57265 23.9421 0.773415 20.96 0.773415 17.9177C0.773415 8.37848 8.54233 0.618164 18.073 0.618164C22.7051 0.618164 27.0451 2.42289 30.3108 5.68858C33.5764 8.95428 35.3726 13.3028 35.3726 17.9263C35.3726 27.4656 27.6037 35.2259 18.073 35.2259H18.0644C15.1682 35.2259 12.3237 34.4954 9.79704 33.1204L0.627319 35.5267Z" fill="url(#paint0_linear_11998_26798)"/>
<path d="M0 36L2.5438 26.8732C0.979708 24.1575 0.146098 21.0723 0.154692 17.9183C0.154692 8.03532 8.19861 0 18.0816 0C22.877 0 27.3803 1.86488 30.7577 5.25089C34.1437 8.6369 36.0086 13.1401 36 17.9269C36 27.81 27.9561 35.8453 18.073 35.8453H18.0644C15.0652 35.8453 12.1174 35.089 9.49629 33.6624L0 36ZM9.94318 30.4139L10.4846 30.7405C12.7706 32.0983 15.3917 32.8116 18.0644 32.8202H18.073C26.2802 32.8202 32.9663 26.1427 32.9663 17.9269C32.9663 13.9479 31.4194 10.2096 28.6092 7.39078C25.799 4.57197 22.052 3.02506 18.073 3.02506C9.85724 3.02506 3.17116 9.70254 3.17116 17.9183C3.17116 20.7286 3.95321 23.47 5.44855 25.8419L5.8009 26.4091L4.29696 31.9007L9.94318 30.4139Z" fill="url(#paint1_linear_11998_26798)"/>
<path fill-rule="evenodd" clip-rule="evenodd" d="M13.5953 10.4149C13.2602 9.66719 12.9078 9.65 12.5898 9.6414C12.332 9.63281 12.0312 9.63281 11.7305 9.63281C11.4297 9.63281 10.9484 9.74453 10.5359 10.1914C10.1234 10.6383 8.9718 11.7211 8.9718 13.9298C8.9718 16.1298 10.5789 18.2611 10.8023 18.5619C11.0258 18.8627 13.9047 23.5292 18.4509 25.3253C22.2322 26.8207 23.0057 26.5199 23.8221 26.4425C24.6471 26.3652 26.469 25.3597 26.8472 24.3112C27.2167 23.2628 27.2167 22.369 27.105 22.1799C26.9933 21.9909 26.6925 21.8792 26.2456 21.6557C25.7987 21.4323 23.5987 20.3494 23.1862 20.1947C22.7736 20.0401 22.4729 19.9713 22.1807 20.4182C21.8799 20.8651 21.0205 21.8706 20.7627 22.1714C20.5049 22.4721 20.2384 22.5065 19.7916 22.2831C19.3447 22.0596 17.9009 21.587 16.1907 20.0572C14.8586 18.8713 13.9563 17.4017 13.6985 16.9548C13.4406 16.508 13.6727 16.2673 13.8961 16.0439C14.0938 15.8462 14.343 15.5197 14.5664 15.2618C14.7899 15.004 14.8672 14.815 15.0133 14.5142C15.1594 14.2134 15.0907 13.9556 14.979 13.7321C14.8672 13.5087 13.9907 11.3 13.5953 10.4149Z" fill="white"/>
</g>
<defs>
<linearGradient id="paint0_linear_11998_26798" x1="17.9995" y1="35.9975" x2="17.9995" y2="-0.0020127" gradientUnits="userSpaceOnUse">
<stop stop-color="#20B038"/>
<stop offset="1" stop-color="#60D66A"/>
</linearGradient>
<linearGradient id="paint1_linear_11998_26798" x1="17.9996" y1="36.1505" x2="17.9996" y2="-0.0093238" gradientUnits="userSpaceOnUse">
<stop stop-color="#F9F9F9"/>
<stop offset="1" stop-color="white"/>
</linearGradient>
<clipPath id="clip0_11998_26798">
<rect width="36" height="36" fill="white"/>
</clipPath>
</defs>
</svg>
